<?xml version="1.0" encoding="UTF-8"?>
<!DOCTYPE svg PUBLIC "-//W3C//DTD SVG 1.1//EN" "http://www.w3.org/Graphics/SVG/1.1/DTD/svg11.dtd">
<svg xmlns="http://www.w3.org/2000/svg" version="1.1" width="813px" height="313px" style="shape-rendering:geometricPrecision; text-rendering:geometricPrecision; image-rendering:optimizeQuality; fill-rule:evenodd; clip-rule:evenodd" xmlns:xlink="http://www.w3.org/1999/xlink">
<g><path style="opacity:1" fill="#f8f8f9" d="M 138.5,5.5 C 181.934,29.3846 224.934,54.0513 267.5,79.5C 268.833,130.5 268.833,181.5 267.5,232.5C 224.833,256.833 182.167,281.167 139.5,305.5C 96.4217,281.212 53.5884,256.546 11,231.5C 10.1667,180.83 10.3334,130.163 11.5,79.5C 54.0603,55.0591 96.3936,30.3924 138.5,5.5 Z M 137.5,23.5 C 138.873,23.3433 140.207,23.51 141.5,24C 178.667,45.8333 215.833,67.6667 253,89.5C 253.667,133.833 253.667,178.167 253,222.5C 215.211,244.309 177.377,265.976 139.5,287.5C 101.708,266.102 64.0409,244.435 26.5,222.5C 25.3334,178.17 25.1667,133.837 26,89.5C 63.4773,67.8517 100.644,45.8517 137.5,23.5 Z"/></g>
<g><path style="opacity:1" fill="#e78323" d="M 161.5,54.5 C 163.279,56.3435 165.612,57.0102 168.5,56.5C 184.724,60.8987 198.891,68.8987 211,80.5C 209.352,88.1279 206.852,95.4612 203.5,102.5C 203.65,99.074 202.484,98.7406 200,101.5C 198.434,102.061 197.101,101.394 196,99.5C 195.097,100.701 193.931,101.535 192.5,102C 193.167,102.333 193.833,102.667 194.5,103C 191.719,103.14 189.553,104.306 188,106.5C 187.086,105.346 186.253,105.513 185.5,107C 181.627,106.849 178.294,108.016 175.5,110.5C 173.504,109.39 171.671,109.724 170,111.5C 167.502,110.402 165.002,110.568 162.5,112C 163.252,112.671 163.586,113.504 163.5,114.5C 151.177,99.8733 138.844,85.2066 126.5,70.5C 126.755,69.0639 127.088,67.5639 127.5,66C 124.412,63.9245 122.579,61.0911 122,57.5C 120.308,57.3238 118.808,56.8238 117.5,56C 118.737,55.7679 119.737,55.2679 120.5,54.5C 134.136,51.8567 147.803,51.8567 161.5,54.5 Z"/></g>
<g><path style="opacity:1" fill="#e7a463" d="M 161.5,54.5 C 164.067,54.7215 166.401,55.3882 168.5,56.5C 165.612,57.0102 163.279,56.3435 161.5,54.5 Z"/></g>
<g><path style="opacity:1" fill="#e88f37" d="M 120.5,54.5 C 119.737,55.2679 118.737,55.7679 117.5,56C 118.808,56.8238 120.308,57.3238 122,57.5C 122.579,61.0911 124.412,63.9245 127.5,66C 127.088,67.5639 126.755,69.0639 126.5,70.5C 122.178,66.1725 118.178,61.5058 114.5,56.5C 116.173,54.9137 118.173,54.2471 120.5,54.5 Z"/></g>
<g><path style="opacity:1" fill="#e89241" d="M 111.5,64.5 C 110.603,63.4019 109.77,63.4019 109,64.5C 107.2,62.1693 105.2,62.1693 103,64.5C 101.133,64.6861 99.1335,64.3528 97,63.5C 94.7903,65.1109 92.2903,65.7776 89.5,65.5C 94.9629,61.8457 100.963,59.679 107.5,59C 109.464,60.451 110.797,62.2843 111.5,64.5 Z"/></g>
<g><path style="opacity:1" fill="#e78322" d="M 111.5,64.5 C 115.525,67.5579 118.858,71.2245 121.5,75.5C 121.427,77.0269 122.094,78.0269 123.5,78.5C 125.167,79.5 126.5,80.8333 127.5,82.5C 127.427,84.0269 128.094,85.0269 129.5,85.5C 129.624,87.5816 130.624,89.0816 132.5,90C 130.866,90.4935 129.199,90.6602 127.5,90.5C 129.176,96.1085 132.842,98.2751 138.5,97C 139.373,98.045 140.373,98.8783 141.5,99.5C 144.002,101.17 146.002,103.336 147.5,106C 143.654,107.536 139.654,108.369 135.5,108.5C 130.306,108.887 124.973,108.887 119.5,108.5C 119.473,110.199 118.806,111.533 117.5,112.5C 113.574,113.552 109.574,114.218 105.5,114.5C 101.988,113.945 98.9878,114.612 96.5,116.5C 84.2661,119.213 71.9328,121.546 59.5,123.5C 56.8806,123.768 54.3806,123.435 52,122.5C 49.544,124.321 46.7107,124.988 43.5,124.5C 43.3713,122.784 43.038,121.117 42.5,119.5C 45.7952,108.899 51.1285,99.5654 58.5,91.5C 60.2624,90.7377 61.2624,89.4044 61.5,87.5C 61.8333,86.5 62.5,85.8333 63.5,85.5C 67.1002,83.5698 70.1002,80.9031 72.5,77.5C 77.2812,72.2734 82.9478,68.2734 89.5,65.5C 92.2903,65.7776 94.7903,65.1109 97,63.5C 99.1335,64.3528 101.133,64.6861 103,64.5C 105.2,62.1693 107.2,62.1693 109,64.5C 109.77,63.4019 110.603,63.4019 111.5,64.5 Z"/></g>
<g><path style="opacity:1" fill="#e7ac70" d="M 121.5,75.5 C 122.906,75.9731 123.573,76.9731 123.5,78.5C 122.094,78.0269 121.427,77.0269 121.5,75.5 Z"/></g>
<g><path style="opacity:1" fill="#ea9b54" d="M 72.5,77.5 C 70.1002,80.9031 67.1002,83.5698 63.5,85.5C 65.8998,82.0969 68.8998,79.4302 72.5,77.5 Z"/></g>
<g><path style="opacity:1" fill="#e6ad79" d="M 127.5,82.5 C 128.906,82.9731 129.573,83.9731 129.5,85.5C 128.094,85.0269 127.427,84.0269 127.5,82.5 Z"/></g>
<g><path style="opacity:1" fill="#eaa970" d="M 61.5,87.5 C 61.2624,89.4044 60.2624,90.7377 58.5,91.5C 58.7376,89.5956 59.7376,88.2623 61.5,87.5 Z"/></g>
<g><path style="opacity:1" fill="#e78c36" d="M 129.5,85.5 C 133.868,89.8666 137.868,94.5333 141.5,99.5C 140.373,98.8783 139.373,98.045 138.5,97C 132.842,98.2751 129.176,96.1085 127.5,90.5C 129.199,90.6602 130.866,90.4935 132.5,90C 130.624,89.0816 129.624,87.5816 129.5,85.5 Z"/></g>
<g><path style="opacity:1" fill="#e98f3a" d="M 222.5,93.5 C 222.5,93.8333 222.5,94.1667 222.5,94.5C 221.559,97.1251 220.393,97.1251 219,94.5C 217.921,96.3937 216.587,96.727 215,95.5C 213.007,97.7848 212.507,100.285 213.5,103C 213,104.5 212.5,106 212,107.5C 211.667,106.5 211.333,105.5 211,104.5C 210.8,106.32 209.966,107.653 208.5,108.5C 210.846,100.961 213.679,93.6272 217,86.5C 219.325,88.5008 221.158,90.8342 222.5,93.5 Z"/></g>
<g><path style="opacity:1" fill="#e7b079" d="M 222.5,93.5 C 223.906,93.9731 224.573,94.9731 224.5,96.5C 223.5,96.1667 222.833,95.5 222.5,94.5C 222.5,94.1667 222.5,93.8333 222.5,93.5 Z"/></g>
<g><path style="opacity:1" fill="#eba969" d="M 224.5,96.5 C 225.906,96.9731 226.573,97.9731 226.5,99.5C 225.094,99.0269 224.427,98.0269 224.5,96.5 Z"/></g>
<g><path style="opacity:1" fill="#e1e1e2" d="M 701.5,100.5 C 695.167,100.5 688.833,100.5 682.5,100.5C 682.5,126.5 682.5,152.5 682.5,178.5C 688.833,178.5 695.167,178.5 701.5,178.5C 695.021,179.491 688.354,179.824 681.5,179.5C 681.5,152.833 681.5,126.167 681.5,99.5C 688.354,99.176 695.021,99.5093 701.5,100.5 Z"/></g>
<g><path style="opacity:1" fill="#e78020" d="M 203.5,102.5 C 201.45,109.598 199.117,116.598 196.5,123.5C 192.407,122.434 188.574,122.767 185,124.5C 182.023,122.749 179.023,122.416 176,123.5C 173.386,122.702 170.886,121.702 168.5,120.5C 166.833,118.5 165.167,116.5 163.5,114.5C 163.586,113.504 163.252,112.671 162.5,112C 165.002,110.568 167.502,110.402 170,111.5C 171.671,109.724 173.504,109.39 175.5,110.5C 178.294,108.016 181.627,106.849 185.5,107C 186.253,105.513 187.086,105.346 188,106.5C 189.553,104.306 191.719,103.14 194.5,103C 193.833,102.667 193.167,102.333 192.5,102C 193.931,101.535 195.097,100.701 196,99.5C 197.101,101.394 198.434,102.061 200,101.5C 202.484,98.7406 203.65,99.074 203.5,102.5 Z"/></g>
<g><path style="opacity:1" fill="#f8f8f8" d="M 386.5,99.5 C 393.508,99.3337 400.508,99.5004 407.5,100C 417.667,115.5 427.833,131 438,146.5C 448.031,131.301 457.864,115.968 467.5,100.5C 474.803,99.5027 482.137,99.1694 489.5,99.5C 489.5,126.167 489.5,152.833 489.5,179.5C 482.833,179.5 476.167,179.5 469.5,179.5C 469.667,163.163 469.5,146.83 469,130.5C 460.636,143.367 452.469,156.367 444.5,169.5C 440.167,170.833 435.833,170.833 431.5,169.5C 423.136,156.968 414.97,144.301 407,131.5C 406.5,147.497 406.333,163.497 406.5,179.5C 399.833,179.5 393.167,179.5 386.5,179.5C 386.5,152.833 386.5,126.167 386.5,99.5 Z"/></g>
<g><path style="opacity:1" fill="#f8f8f9" d="M 526.5,115.5 C 526.5,120.833 526.5,126.167 526.5,131.5C 540.167,131.5 553.833,131.5 567.5,131.5C 567.5,136.5 567.5,141.5 567.5,146.5C 553.833,146.5 540.167,146.5 526.5,146.5C 526.5,152.167 526.5,157.833 526.5,163.5C 542.5,163.5 558.5,163.5 574.5,163.5C 574.858,168.735 574.858,173.735 574.5,178.5C 551.833,178.5 529.167,178.5 506.5,178.5C 506.5,152.5 506.5,126.5 506.5,100.5C 528.5,100.5 550.5,100.5 572.5,100.5C 572.5,105.167 572.5,109.833 572.5,114.5C 556.991,114.17 541.658,114.504 526.5,115.5 Z"/></g>
<g><path style="opacity:1" fill="#f8f8f8" d="M 586.5,99.5 C 601.17,99.3334 615.837,99.5001 630.5,100C 660.007,103.51 672.841,120.01 669,149.5C 663.924,167.226 652.091,177.06 633.5,179C 617.837,179.5 602.17,179.667 586.5,179.5C 585.367,152.83 585.367,126.164 586.5,99.5 Z M 606.5,115.5 C 615.226,115.161 623.893,115.661 632.5,117C 643.495,120.634 649.162,128.3 649.5,140C 649.536,151.29 644.202,158.624 633.5,162C 624.616,163.374 615.783,163.54 607,162.5C 606.5,146.837 606.333,131.17 606.5,115.5 Z"/></g>
<g><path style="opacity:1" fill="#f8f8f8" d="M 701.5,100.5 C 702.833,126.5 702.833,152.5 701.5,178.5C 695.167,178.5 688.833,178.5 682.5,178.5C 682.5,152.5 682.5,126.5 682.5,100.5C 688.833,100.5 695.167,100.5 701.5,100.5 Z"/></g>
<g><path style="opacity:1" fill="#f8f8f8" d="M 747.5,99.5 C 754.175,99.3337 760.842,99.5004 767.5,100C 780.551,125.937 793.218,152.104 805.5,178.5C 798.189,179.665 790.856,179.831 783.5,179C 781.007,174.35 779.007,169.516 777.5,164.5C 764.15,164.167 750.817,164.501 737.5,165.5C 735.774,169.953 733.774,174.286 731.5,178.5C 724.532,179.497 717.532,179.83 710.5,179.5C 722.065,152.467 734.399,125.8 747.5,99.5 Z M 756.5,121.5 C 757.497,121.47 758.164,121.97 758.5,123C 762.171,131.35 765.837,139.684 769.5,148C 761.479,148.832 753.479,148.665 745.5,147.5C 749.563,138.972 753.229,130.306 756.5,121.5 Z"/></g>
<g><path style="opacity:1" fill="#e9a86c" d="M 226.5,99.5 C 227.906,99.9731 228.573,100.973 228.5,102.5C 227.094,102.027 226.427,101.027 226.5,99.5 Z"/></g>
<g><path style="opacity:1" fill="#e78320" d="M 222.5,94.5 C 222.833,95.5 223.5,96.1667 224.5,96.5C 224.427,98.0269 225.094,99.0269 226.5,99.5C 226.427,101.027 227.094,102.027 228.5,102.5C 229.89,103.899 230.89,105.566 231.5,107.5C 231.703,109.39 231.037,110.89 229.5,112C 230.833,113.84 230.666,114.34 229,113.5C 227.548,114.907 227.715,116.407 229.5,118C 225.741,119.985 221.741,121.152 217.5,121.5C 217.36,119.876 218.027,118.71 219.5,118C 216.964,117.661 214.464,117.161 212,116.5C 209.541,116.89 207.874,118.224 207,120.5C 206.506,118.866 206.34,117.199 206.5,115.5C 206.767,113.035 207.434,110.701 208.5,108.5C 209.966,107.653 210.8,106.32 211,104.5C 211.333,105.5 211.667,106.5 212,107.5C 212.5,106 213,104.5 213.5,103C 212.507,100.285 213.007,97.7848 215,95.5C 216.587,96.727 217.921,96.3937 219,94.5C 220.393,97.1251 221.559,97.1251 222.5,94.5 Z"/></g>
<g><path style="opacity:1" fill="#e8984f" d="M 135.5,108.5 C 129.7,110.196 123.7,111.529 117.5,112.5C 118.806,111.533 119.473,110.199 119.5,108.5C 124.973,108.887 130.306,108.887 135.5,108.5 Z"/></g>
<g><path style="opacity:1" fill="#e89f5e" d="M 105.5,114.5 C 102.727,115.657 99.7273,116.324 96.5,116.5C 98.9878,114.612 101.988,113.945 105.5,114.5 Z"/></g>
<g><path style="opacity:1" fill="#e0e2e3" d="M 526.5,115.5 C 541.658,114.504 556.991,114.17 572.5,114.5C 572.5,109.833 572.5,105.167 572.5,100.5C 550.5,100.5 528.5,100.5 506.5,100.5C 506.5,126.5 506.5,152.5 506.5,178.5C 529.167,178.5 551.833,178.5 574.5,178.5C 551.673,179.498 528.673,179.831 505.5,179.5C 505.5,152.833 505.5,126.167 505.5,99.5C 528.167,99.5 550.833,99.5 573.5,99.5C 573.5,104.833 573.5,110.167 573.5,115.5C 557.833,115.5 542.167,115.5 526.5,115.5 Z"/></g>
<g><path style="opacity:1" fill="#e6ad7a" d="M 337.5,100.5 C 322.833,100.5 308.167,100.5 293.5,100.5C 293.5,126.5 293.5,152.5 293.5,178.5C 308.833,178.5 324.167,178.5 339.5,178.5C 324.009,179.496 308.342,179.83 292.5,179.5C 292.5,152.833 292.5,126.167 292.5,99.5C 307.676,99.1706 322.676,99.5039 337.5,100.5 Z"/></g>
<g><path style="opacity:1" fill="#e88321" d="M 337.5,100.5 C 364.455,103.962 376.955,119.295 375,146.5C 374.685,148.586 374.185,150.586 373.5,152.5C 372.85,152.196 372.183,151.863 371.5,151.5C 370.52,154.086 370.187,156.753 370.5,159.5C 363.578,171.139 353.244,177.473 339.5,178.5C 324.167,178.5 308.833,178.5 293.5,178.5C 293.5,152.5 293.5,126.5 293.5,100.5C 308.167,100.5 322.833,100.5 337.5,100.5 Z M 313.5,115.5 C 321.529,115.344 329.529,115.677 337.5,116.5C 345.062,118.734 350.395,123.401 353.5,130.5C 354.295,134.785 354.628,139.119 354.5,143.5C 352.166,155.667 344.833,162.334 332.5,163.5C 326.167,163.5 319.833,163.5 313.5,163.5C 313.5,147.5 313.5,131.5 313.5,115.5 Z"/></g>
<g><path style="opacity:1" fill="#e79c56" d="M 312.5,115.5 C 319.655,114.345 326.988,114.178 334.5,115C 335.737,115.232 336.737,115.732 337.5,116.5C 329.529,115.677 321.529,115.344 313.5,115.5C 313.167,115.5 312.833,115.5 312.5,115.5 Z"/></g>
<g><path style="opacity:1" fill="#e89647" d="M 42.5,119.5 C 43.038,121.117 43.3713,122.784 43.5,124.5C 46.7107,124.988 49.544,124.321 52,122.5C 54.3806,123.435 56.8806,123.768 59.5,123.5C 54.4089,125.129 49.0755,126.129 43.5,126.5C 42.209,126.737 41.209,126.404 40.5,125.5C 40.595,123.214 41.2616,121.214 42.5,119.5 Z"/></g>
<g><path style="opacity:1" fill="#e59e5c" d="M 91.5,124.5 C 93.6074,123.532 95.9407,123.198 98.5,123.5C 98.405,125.786 97.7384,127.786 96.5,129.5C 97.1667,125.5 95.5,123.833 91.5,124.5 Z"/></g>
<g><path style="opacity:1" fill="#e89c56" d="M 91.5,124.5 C 91.0825,125.222 90.4158,125.722 89.5,126C 86.854,126.497 84.1873,126.664 81.5,126.5C 84.5885,125.215 87.9219,124.549 91.5,124.5 Z"/></g>
<g><path style="opacity:1" fill="#e6b98d" d="M 40.5,125.5 C 41.209,126.404 42.209,126.737 43.5,126.5C 42.2918,127.782 40.9584,127.782 39.5,126.5C 39.6236,125.893 39.9569,125.56 40.5,125.5 Z"/></g>
<g><path style="opacity:1" fill="#e78c33" d="M 168.5,120.5 C 170.886,121.702 173.386,122.702 176,123.5C 179.023,122.416 182.023,122.749 185,124.5C 188.574,122.767 192.407,122.434 196.5,123.5C 194.777,129.169 192.944,134.836 191,140.5C 190.632,141.91 189.799,142.91 188.5,143.5C 181.811,135.814 175.144,128.147 168.5,120.5 Z"/></g>
<g><path style="opacity:1" fill="#e78425" d="M 91.5,124.5 C 95.5,123.833 97.1667,125.5 96.5,129.5C 96.5674,130.959 96.2341,132.292 95.5,133.5C 94.5,133.5 93.5,133.5 92.5,133.5C 92.5,136.167 92.5,138.833 92.5,141.5C 83.2296,170.311 73.563,198.978 63.5,227.5C 44.5378,208.216 34.8711,184.882 34.5,157.5C 34.6962,149.917 35.6962,142.584 37.5,135.5C 42.8168,133.904 47.9834,134.238 53,136.5C 54.9449,135.137 57.1116,134.303 59.5,134C 60.7101,132.961 61.7101,131.794 62.5,130.5C 68.6098,128.677 74.9431,127.343 81.5,126.5C 84.1873,126.664 86.854,126.497 89.5,126C 90.4158,125.722 91.0825,125.222 91.5,124.5 Z"/></g>
<g><path style="opacity:1" fill="#e8913e" d="M 62.5,130.5 C 61.7101,131.794 60.7101,132.961 59.5,134C 57.1116,134.303 54.9449,135.137 53,136.5C 47.9834,134.238 42.8168,133.904 37.5,135.5C 45.5176,132.882 53.8509,131.215 62.5,130.5 Z"/></g>
<g><path style="opacity:1" fill="#e78424" d="M 231.5,107.5 C 235.249,113.674 237.915,120.341 239.5,127.5C 239.41,130.152 240.076,132.485 241.5,134.5C 245.711,150.327 245.378,166.161 240.5,182C 220.516,185.942 200.516,189.775 180.5,193.5C 179.522,190.732 179.855,188.066 181.5,185.5C 183.834,183.824 184.834,181.491 184.5,178.5C 185.435,174.031 186.768,169.697 188.5,165.5C 190.213,164.365 190.88,162.698 190.5,160.5C 195.462,145.274 200.796,130.274 206.5,115.5C 206.34,117.199 206.506,118.866 207,120.5C 207.874,118.224 209.541,116.89 212,116.5C 214.464,117.161 216.964,117.661 219.5,118C 218.027,118.71 217.36,119.876 217.5,121.5C 221.741,121.152 225.741,119.985 229.5,118C 227.715,116.407 227.548,114.907 229,113.5C 230.666,114.34 230.833,113.84 229.5,112C 231.037,110.89 231.703,109.39 231.5,107.5 Z"/></g>
<g><path style="opacity:1" fill="#e89a56" d="M 353.5,130.5 C 354.309,131.469 355.309,132.302 356.5,133C 355.865,136.603 355.198,140.103 354.5,143.5C 354.628,139.119 354.295,134.785 353.5,130.5 Z"/></g>
<g><path style="opacity:1" fill="#e79b56" d="M 95.5,133.5 C 94.871,136.397 93.871,139.064 92.5,141.5C 92.5,138.833 92.5,136.167 92.5,133.5C 93.5,133.5 94.5,133.5 95.5,133.5 Z"/></g>
<g><path style="opacity:1" fill="#e9a35f" d="M 239.5,127.5 C 240.924,129.515 241.59,131.848 241.5,134.5C 240.076,132.485 239.41,130.152 239.5,127.5 Z"/></g>
<g><path style="opacity:1" fill="#ec9a52" d="M 373.5,152.5 C 373.065,155.157 372.065,157.491 370.5,159.5C 370.187,156.753 370.52,154.086 371.5,151.5C 372.183,151.863 372.85,152.196 373.5,152.5 Z"/></g>
<g><path style="opacity:1" fill="#eaaf72" d="M 190.5,160.5 C 190.88,162.698 190.213,164.365 188.5,165.5C 188.796,163.597 189.463,161.93 190.5,160.5 Z"/></g>
<g><path style="opacity:1" fill="#ebb586" d="M 312.5,115.5 C 312.833,115.5 313.167,115.5 313.5,115.5C 313.5,131.5 313.5,147.5 313.5,163.5C 319.833,163.5 326.167,163.5 332.5,163.5C 326.021,164.491 319.354,164.824 312.5,164.5C 312.5,148.167 312.5,131.833 312.5,115.5 Z"/></g>
<g><path style="opacity:1" fill="#e88c35" d="M 105.5,191.5 C 101.112,190.612 98.6124,187.946 98,183.5C 97.5,184 97,184.5 96.5,185C 92.3991,185.389 88.3991,186.223 84.5,187.5C 85.739,182.1 87.739,177.1 90.5,172.5C 95.9284,178.584 100.928,184.917 105.5,191.5 Z"/></g>
<g><path style="opacity:1" fill="#e9a366" d="M 184.5,178.5 C 184.834,181.491 183.834,183.824 181.5,185.5C 181.935,182.843 182.935,180.509 184.5,178.5 Z"/></g>
<g><path style="opacity:1" fill="#e7c19c" d="M 234.5,190.5 C 235.708,189.218 237.042,189.218 238.5,190.5C 238.376,191.107 238.043,191.44 237.5,191.5C 236.791,190.596 235.791,190.263 234.5,190.5 Z"/></g>
<g><path style="opacity:1" fill="#e78423" d="M 105.5,191.5 C 107.727,193.607 109.727,195.94 111.5,198.5C 111.427,200.027 112.094,201.027 113.5,201.5C 114.5,201.833 115.167,202.5 115.5,203.5C 115.738,205.404 116.738,206.738 118.5,207.5C 123.302,212.427 127.635,217.76 131.5,223.5C 131.427,225.027 132.094,226.027 133.5,226.5C 136.2,228.234 138.2,230.568 139.5,233.5C 139.738,235.404 140.738,236.738 142.5,237.5C 148.492,244.167 154.159,251.167 159.5,258.5C 124.955,265.153 94.6213,256.653 68.5,233C 70.9308,227.642 72.9308,222.142 74.5,216.5C 76.2132,215.365 76.8799,213.698 76.5,211.5C 76.9707,209.421 77.6373,207.421 78.5,205.5C 81.9152,203.062 83.2485,199.896 82.5,196C 83.8713,193.681 84.5379,191.181 84.5,188.5C 84.5,188.167 84.5,187.833 84.5,187.5C 88.3991,186.223 92.3991,185.389 96.5,185C 97,184.5 97.5,184 98,183.5C 98.6124,187.946 101.112,190.612 105.5,191.5 Z"/></g>
<g><path style="opacity:1" fill="#e68e38" d="M 234.5,190.5 C 235.791,190.263 236.791,190.596 237.5,191.5C 237.128,195.297 235.794,198.63 233.5,201.5C 232.62,199.611 232.62,197.611 233.5,195.5C 231.856,195.286 230.356,195.62 229,196.5C 225.25,195.195 221.417,194.195 217.5,193.5C 222.933,191.883 228.6,190.883 234.5,190.5 Z"/></g>
<g><path style="opacity:1" fill="#a7a8ae" d="M 316.5,196.5 C 320.902,196.228 325.235,196.561 329.5,197.5C 330.823,199.204 330.49,200.537 328.5,201.5C 321.433,197.605 316.767,199.439 314.5,207C 316.492,214.829 321.159,216.995 328.5,213.5C 330.767,213.559 331.433,214.392 330.5,216C 323.363,219.837 316.863,219.004 311,213.5C 307.785,206.01 309.619,200.343 316.5,196.5 Z"/></g>
<g><path style="opacity:1" fill="#a7a8ae" d="M 342.5,196.5 C 346.846,196.334 351.179,196.501 355.5,197C 359.104,198.334 360.271,200.834 359,204.5C 358.07,206.552 356.57,208.052 354.5,209C 357.192,211.557 359.525,214.391 361.5,217.5C 359.5,218.833 357.5,218.833 355.5,217.5C 353.157,214.793 350.823,212.126 348.5,209.5C 347.516,212.428 347.183,215.428 347.5,218.5C 345.833,218.5 344.167,218.5 342.5,218.5C 342.5,211.167 342.5,203.833 342.5,196.5 Z M 347.5,199.5 C 350.596,198.907 352.929,199.907 354.5,202.5C 353.233,205.635 350.9,206.968 347.5,206.5C 347.5,204.167 347.5,201.833 347.5,199.5 Z"/></g>
<g><path style="opacity:1" fill="#a7a8ae" d="M 369.5,196.5 C 375.167,196.5 380.833,196.5 386.5,196.5C 386.5,197.5 386.5,198.5 386.5,199.5C 382.5,199.5 378.5,199.5 374.5,199.5C 374.5,201.833 374.5,204.167 374.5,206.5C 377.833,206.5 381.167,206.5 384.5,206.5C 384.5,207.5 384.5,208.5 384.5,209.5C 381.167,209.5 377.833,209.5 374.5,209.5C 374.5,211.5 374.5,213.5 374.5,215.5C 378.5,215.5 382.5,215.5 386.5,215.5C 386.5,216.5 386.5,217.5 386.5,218.5C 380.833,218.5 375.167,218.5 369.5,218.5C 369.5,211.167 369.5,203.833 369.5,196.5 Z"/></g>
<g><path style="opacity:1" fill="#a7a8ae" d="M 403.5,196.5 C 405.5,196.5 407.5,196.5 409.5,196.5C 411.907,203.71 414.907,210.71 418.5,217.5C 416.926,218.631 415.259,218.798 413.5,218C 411.213,212.543 407.213,211.043 401.5,213.5C 400.721,217.345 398.388,219.011 394.5,218.5C 396.943,210.945 399.943,203.612 403.5,196.5 Z M 405.5,202.5 C 406.933,204.519 408.267,206.686 409.5,209C 407.421,209.808 405.421,209.641 403.5,208.5C 404.372,206.55 405.039,204.55 405.5,202.5 Z"/></g>
<g><path style="opacity:1" fill="#a7a8ae" d="M 422.5,196.5 C 429.167,196.5 435.833,196.5 442.5,196.5C 442.5,197.5 442.5,198.5 442.5,199.5C 440.167,199.5 437.833,199.5 435.5,199.5C 435.5,205.833 435.5,212.167 435.5,218.5C 433.833,218.5 432.167,218.5 430.5,218.5C 430.5,212.167 430.5,205.833 430.5,199.5C 427.833,199.5 425.167,199.5 422.5,199.5C 422.5,198.5 422.5,197.5 422.5,196.5 Z"/></g>
<g><path style="opacity:1" fill="#a7a8ae" d="M 452.5,196.5 C 454.167,196.5 455.833,196.5 457.5,196.5C 457.5,203.833 457.5,211.167 457.5,218.5C 455.833,218.5 454.167,218.5 452.5,218.5C 452.5,211.167 452.5,203.833 452.5,196.5 Z"/></g>
<g><path style="opacity:1" fill="#a7a8ae" d="M 467.5,196.5 C 469.467,196.261 471.301,196.594 473,197.5C 475,202.167 477,206.833 479,211.5C 481.263,206.876 483.43,202.209 485.5,197.5C 487.045,196.548 488.712,196.215 490.5,196.5C 488.239,203.695 485.406,210.695 482,217.5C 480.186,218.76 478.353,218.76 476.5,217.5C 473.212,210.595 470.212,203.595 467.5,196.5 Z"/></g>
<g><path style="opacity:1" fill="#a7a8ae" d="M 499.5,196.5 C 505.167,196.5 510.833,196.5 516.5,196.5C 516.5,197.5 516.5,198.5 516.5,199.5C 512.5,199.5 508.5,199.5 504.5,199.5C 504.5,201.833 504.5,204.167 504.5,206.5C 507.833,206.5 511.167,206.5 514.5,206.5C 514.5,207.5 514.5,208.5 514.5,209.5C 511.167,209.5 507.833,209.5 504.5,209.5C 504.5,211.5 504.5,213.5 504.5,215.5C 508.5,215.5 512.5,215.5 516.5,215.5C 516.5,216.5 516.5,217.5 516.5,218.5C 510.833,218.5 505.167,218.5 499.5,218.5C 499.5,211.167 499.5,203.833 499.5,196.5 Z"/></g>
<g><path style="opacity:1" fill="#a7a8ae" d="M 542.5,196.5 C 545.85,196.335 549.183,196.502 552.5,197C 553.973,197.71 554.64,198.876 554.5,200.5C 552.116,200.557 549.782,200.223 547.5,199.5C 545.792,199.703 544.459,200.536 543.5,202C 546.768,204.206 550.268,206.039 554,207.5C 555.85,210.975 555.35,214.142 552.5,217C 547.89,219.101 543.39,218.934 539,216.5C 538.517,215.552 538.351,214.552 538.5,213.5C 541.39,213.278 544.057,213.945 546.5,215.5C 550.554,214.594 551.22,212.76 548.5,210C 545.67,209.131 543.003,207.964 540.5,206.5C 538.741,202.454 539.408,199.121 542.5,196.5 Z"/></g>
<g><path style="opacity:1" fill="#a7a8ae" d="M 571.5,196.5 C 575.182,196.335 578.848,196.501 582.5,197C 589.053,199.73 591.22,204.563 589,211.5C 584.36,218.155 578.194,219.989 570.5,217C 564.069,212.353 562.902,206.52 567,199.5C 568.652,198.601 570.152,197.601 571.5,196.5 Z M 573.5,199.5 C 579.991,198.328 583.658,200.995 584.5,207.5C 584.246,212.255 581.746,214.922 577,215.5C 568.616,211.744 567.449,206.411 573.5,199.5 Z"/></g>
<g><path style="opacity:1" fill="#a7a8ae" d="M 598.5,196.5 C 600.167,196.5 601.833,196.5 603.5,196.5C 603.5,202.5 603.5,208.5 603.5,214.5C 607.167,214.5 610.833,214.5 614.5,214.5C 614.5,215.833 614.5,217.167 614.5,218.5C 609.167,218.5 603.833,218.5 598.5,218.5C 598.5,211.167 598.5,203.833 598.5,196.5 Z"/></g>
<g><path style="opacity:1" fill="#a7a8ae" d="M 623.5,196.5 C 625.167,196.5 626.833,196.5 628.5,196.5C 628.334,201.511 628.501,206.511 629,211.5C 632.333,216.833 635.667,216.833 639,211.5C 639.499,206.511 639.666,201.511 639.5,196.5C 641.167,196.5 642.833,196.5 644.5,196.5C 644.666,201.844 644.499,207.177 644,212.5C 639.872,218.485 634.372,219.985 627.5,217C 625.951,215.786 624.785,214.286 624,212.5C 623.501,207.177 623.334,201.844 623.5,196.5 Z"/></g>
<g><path style="opacity:1" fill="#a7a8ae" d="M 653.5,196.5 C 660.167,196.5 666.833,196.5 673.5,196.5C 673.5,197.5 673.5,198.5 673.5,199.5C 671.167,199.5 668.833,199.5 666.5,199.5C 666.5,205.833 666.5,212.167 666.5,218.5C 664.833,218.5 663.167,218.5 661.5,218.5C 661.5,212.167 661.5,205.833 661.5,199.5C 658.833,199.5 656.167,199.5 653.5,199.5C 653.5,198.5 653.5,197.5 653.5,196.5 Z"/></g>
<g><path style="opacity:1" fill="#a7a8ae" d="M 683.5,196.5 C 685.167,196.5 686.833,196.5 688.5,196.5C 688.5,203.833 688.5,211.167 688.5,218.5C 686.833,218.5 685.167,218.5 683.5,218.5C 683.5,211.167 683.5,203.833 683.5,196.5 Z"/></g>
<g><path style="opacity:1" fill="#a7a8ae" d="M 705.5,196.5 C 709.182,196.335 712.848,196.501 716.5,197C 723.053,199.73 725.22,204.563 723,211.5C 718.36,218.155 712.194,219.989 704.5,217C 698.069,212.353 696.902,206.52 701,199.5C 702.652,198.601 704.152,197.601 705.5,196.5 Z M 707.5,199.5 C 713.991,198.328 717.658,200.995 718.5,207.5C 718.246,212.255 715.746,214.922 711,215.5C 702.616,211.744 701.449,206.411 707.5,199.5 Z"/></g>
<g><path style="opacity:1" fill="#a7a8ae" d="M 733.5,196.5 C 735.199,196.34 736.866,196.506 738.5,197C 742.45,201.072 746.283,205.238 750,209.5C 750.499,205.179 750.666,200.846 750.5,196.5C 751.833,196.5 753.167,196.5 754.5,196.5C 754.5,203.833 754.5,211.167 754.5,218.5C 753.127,218.657 751.793,218.49 750.5,218C 746.667,213.5 742.833,209 739,204.5C 738.501,209.155 738.334,213.821 738.5,218.5C 736.833,218.5 735.167,218.5 733.5,218.5C 733.5,211.167 733.5,203.833 733.5,196.5 Z"/></g>
<g><path style="opacity:1" fill="#a7a8ae" d="M 769.5,196.5 C 772.85,196.335 776.183,196.502 779.5,197C 780.973,197.71 781.64,198.876 781.5,200.5C 779.116,200.557 776.782,200.223 774.5,199.5C 772.792,199.703 771.459,200.536 770.5,202C 773.768,204.206 777.268,206.039 781,207.5C 782.85,210.975 782.35,214.142 779.5,217C 774.89,219.101 770.39,218.934 766,216.5C 765.517,215.552 765.351,214.552 765.5,213.5C 768.39,213.278 771.057,213.945 773.5,215.5C 777.554,214.594 778.22,212.76 775.5,210C 772.67,209.131 770.003,207.964 767.5,206.5C 765.741,202.454 766.408,199.121 769.5,196.5 Z"/></g>
<g><path style="opacity:1" fill="#e89447" d="M 84.5,188.5 C 84.5379,191.181 83.8713,193.681 82.5,196C 83.2485,199.896 81.9152,203.062 78.5,205.5C 79.7482,199.472 81.7482,193.806 84.5,188.5 Z"/></g>
<g><path style="opacity:1" fill="#e78321" d="M 217.5,193.5 C 221.417,194.195 225.25,195.195 229,196.5C 230.356,195.62 231.856,195.286 233.5,195.5C 232.62,197.611 232.62,199.611 233.5,201.5C 232.358,205.117 230.692,208.45 228.5,211.5C 227.069,211.119 226.236,210.119 226,208.5C 224.174,210.074 222.007,210.907 219.5,211C 221.301,211.317 221.634,211.984 220.5,213C 221.167,213.333 221.833,213.667 222.5,214C 221.359,214.741 221.359,215.575 222.5,216.5C 220.183,218.316 218.016,220.316 216,222.5C 215.383,223.449 215.549,224.282 216.5,225C 212.941,225.679 211.941,227.512 213.5,230.5C 212.564,231.974 211.23,232.974 209.5,233.5C 208.305,233.322 207.138,232.989 206,232.5C 202.466,234.016 198.966,235.683 195.5,237.5C 194.914,237.291 194.414,236.957 194,236.5C 193.5,237.667 192.667,238.5 191.5,239C 192.5,239.333 193.5,239.667 194.5,240C 194.077,241.509 192.91,243.009 191,244.5C 189.938,243.903 188.772,243.57 187.5,243.5C 185.424,244.518 183.591,245.185 182,245.5C 179.904,244.285 180.071,243.451 182.5,243C 181.056,242.219 179.723,242.386 178.5,243.5C 177.167,244.5 177.167,245.5 178.5,246.5C 177.624,247.251 176.624,247.751 175.5,248C 176.336,249.243 176.003,250.41 174.5,251.5C 172.657,251.245 170.657,251.078 168.5,251C 165.691,249.259 162.691,248.092 159.5,247.5C 151.792,238.459 144.459,229.126 137.5,219.5C 137.5,218.167 137.5,216.833 137.5,215.5C 140.541,215.594 142.207,214.094 142.5,211C 141.5,210.667 140.5,210.333 139.5,210C 141.346,208.97 143.013,207.804 144.5,206.5C 144.833,206.5 145.167,206.5 145.5,206.5C 148.187,206.664 150.854,206.497 153.5,206C 154.416,205.722 155.082,205.222 155.5,204.5C 176.019,200.191 196.686,196.524 217.5,193.5 Z"/></g>
<g><path style="opacity:1" fill="#eaad71" d="M 111.5,198.5 C 112.906,198.973 113.573,199.973 113.5,201.5C 112.094,201.027 111.427,200.027 111.5,198.5 Z"/></g>
<g><path style="opacity:1" fill="#ebab73" d="M 115.5,203.5 C 117.262,204.262 118.262,205.596 118.5,207.5C 116.738,206.738 115.738,205.404 115.5,203.5 Z"/></g>
<g><path style="opacity:1" fill="#e8a15d" d="M 155.5,204.5 C 155.082,205.222 154.416,205.722 153.5,206C 150.854,206.497 148.187,206.664 145.5,206.5C 148.627,205.419 151.96,204.753 155.5,204.5 Z"/></g>
<g><path style="opacity:1" fill="#e88e39" d="M 144.5,206.5 C 143.013,207.804 141.346,208.97 139.5,210C 140.5,210.333 141.5,210.667 142.5,211C 142.207,214.094 140.541,215.594 137.5,215.5C 137.5,216.833 137.5,218.167 137.5,219.5C 134.785,217.098 132.285,214.432 130,211.5C 129.517,210.552 129.351,209.552 129.5,208.5C 134.516,207.942 139.516,207.275 144.5,206.5 Z"/></g>
<g><path style="opacity:1" fill="#e6a469" d="M 76.5,211.5 C 76.8799,213.698 76.2132,215.365 74.5,216.5C 74.7959,214.597 75.4625,212.93 76.5,211.5 Z"/></g>
<g><path style="opacity:1" fill="#e98e3d" d="M 228.5,211.5 C 224.612,218.72 219.612,225.053 213.5,230.5C 211.941,227.512 212.941,225.679 216.5,225C 215.549,224.282 215.383,223.449 216,222.5C 218.016,220.316 220.183,218.316 222.5,216.5C 221.359,215.575 221.359,214.741 222.5,214C 221.833,213.667 221.167,213.333 220.5,213C 221.634,211.984 221.301,211.317 219.5,211C 222.007,210.907 224.174,210.074 226,208.5C 226.236,210.119 227.069,211.119 228.5,211.5 Z"/></g>
<g><path style="opacity:1" fill="#eaad70" d="M 131.5,223.5 C 132.906,223.973 133.573,224.973 133.5,226.5C 132.094,226.027 131.427,225.027 131.5,223.5 Z"/></g>
<g><path style="opacity:1" fill="#e6a86f" d="M 139.5,233.5 C 141.262,234.262 142.262,235.596 142.5,237.5C 140.738,236.738 139.738,235.404 139.5,233.5 Z"/></g>
<g><path style="opacity:1" fill="#e88931" d="M 209.5,233.5 C 197.937,244.793 184.27,252.793 168.5,257.5C 164.766,254.769 161.766,251.436 159.5,247.5C 162.691,248.092 165.691,249.259 168.5,251C 170.657,251.078 172.657,251.245 174.5,251.5C 176.003,250.41 176.336,249.243 175.5,248C 176.624,247.751 177.624,247.251 178.5,246.5C 177.167,245.5 177.167,244.5 178.5,243.5C 179.723,242.386 181.056,242.219 182.5,243C 180.071,243.451 179.904,244.285 182,245.5C 183.591,245.185 185.424,244.518 187.5,243.5C 188.772,243.57 189.938,243.903 191,244.5C 192.91,243.009 194.077,241.509 194.5,240C 193.5,239.667 192.5,239.333 191.5,239C 192.667,238.5 193.5,237.667 194,236.5C 194.414,236.957 194.914,237.291 195.5,237.5C 198.966,235.683 202.466,234.016 206,232.5C 207.138,232.989 208.305,233.322 209.5,233.5 Z"/></g>
</svg>
