<?xml version="1.0" encoding="UTF-8"?>
<!DOCTYPE svg PUBLIC "-//W3C//DTD SVG 1.1//EN" "http://www.w3.org/Graphics/SVG/1.1/DTD/svg11.dtd">
<svg xmlns="http://www.w3.org/2000/svg" version="1.1" width="813px" height="313px" style="shape-rendering:geometricPrecision; text-rendering:geometricPrecision; image-rendering:optimizeQuality; fill-rule:evenodd; clip-rule:evenodd" xmlns:xlink="http://www.w3.org/1999/xlink">
<g><path style="opacity:1" fill="#494a49" d="M 267.5,79.5 C 267.5,80.1667 267.5,80.8333 267.5,81.5C 266.683,83.9686 266.183,86.6353 266,89.5C 264.467,89.0563 262.967,88.723 261.5,88.5C 259.999,89.7515 258.332,90.7515 256.5,91.5C 255.818,90.7573 255.151,90.0906 254.5,89.5C 254.158,88.6618 253.492,88.3284 252.5,88.5C 215.014,66.5881 177.347,44.9214 139.5,23.5C 102.822,44.5176 66.1558,65.5176 29.5,86.5C 29.4606,85.4168 29.1272,84.4168 28.5,83.5C 30.6499,81.8509 32.6499,80.0176 34.5,78C 33.2823,76.5839 31.9489,76.7506 30.5,78.5C 27.9365,78.263 27.9365,77.763 30.5,77C 28.1224,76.0255 28.4557,75.3589 31.5,75C 28.8058,73.512 26.4725,73.6787 24.5,75.5C 24.9377,76.5063 25.6043,76.5063 26.5,75.5C 27.521,76.0016 27.6877,76.6683 27,77.5C 24.3731,78.3136 22.0398,79.6469 20,81.5C 17.9155,78.8552 15.4155,78.1885 12.5,79.5C 54.6064,54.6076 96.9397,29.9409 139.5,5.5C 182.442,29.7949 225.109,54.4616 267.5,79.5 Z"/></g>
<g><path style="opacity:1" fill="#e78321" d="M 153.5,53.5 C 156.237,53.4013 158.904,53.7347 161.5,54.5C 163.279,56.3435 165.612,57.0102 168.5,56.5C 172.537,57.0653 176.203,58.3987 179.5,60.5C 179.67,61.8221 179.337,62.9887 178.5,64C 180.338,65.84 182.338,67.5067 184.5,69C 189.21,69.8919 194.21,70.7252 199.5,71.5C 204.248,73.8824 208.248,77.2157 211.5,81.5C 209.056,88.6987 206.389,95.6987 203.5,102.5C 203.65,99.074 202.484,98.7406 200,101.5C 198.434,102.061 197.101,101.394 196,99.5C 195.097,100.701 193.931,101.535 192.5,102C 193.167,102.333 193.833,102.667 194.5,103C 191.719,103.14 189.553,104.306 188,106.5C 187.086,105.346 186.253,105.513 185.5,107C 181.627,106.849 178.294,108.016 175.5,110.5C 173.504,109.39 171.671,109.724 170,111.5C 167.502,110.402 165.002,110.568 162.5,112C 163.252,112.671 163.586,113.504 163.5,114.5C 151.177,99.8733 138.844,85.2066 126.5,70.5C 126.879,69.1938 127.212,67.8605 127.5,66.5C 129.048,68.9224 130.714,68.9224 132.5,66.5C 132.306,64.9299 132.306,63.4299 132.5,62C 130.212,61.1779 127.878,60.5112 125.5,60C 127.618,59.7398 129.284,58.7398 130.5,57C 129.01,55.228 127.343,55.0613 125.5,56.5C 124.692,56.1924 124.025,55.6924 123.5,55C 133.455,53.7048 143.455,53.2048 153.5,53.5 Z"/></g>
<g><path style="opacity:1" fill="#e88d37" d="M 153.5,53.5 C 143.455,53.2048 133.455,53.7048 123.5,55C 124.025,55.6924 124.692,56.1924 125.5,56.5C 127.343,55.0613 129.01,55.228 130.5,57C 129.284,58.7398 127.618,59.7398 125.5,60C 127.878,60.5112 130.212,61.1779 132.5,62C 132.306,63.4299 132.306,64.9299 132.5,66.5C 130.714,68.9224 129.048,68.9224 127.5,66.5C 127.212,67.8605 126.879,69.1938 126.5,70.5C 123.016,66.9079 119.516,63.2412 116,59.5C 114.759,58.1233 114.592,56.79 115.5,55.5C 128.176,52.4758 140.842,51.8091 153.5,53.5 Z"/></g>
<g><path style="opacity:1" fill="#e7a463" d="M 161.5,54.5 C 164.067,54.7215 166.401,55.3882 168.5,56.5C 165.612,57.0102 163.279,56.3435 161.5,54.5 Z"/></g>
<g><path style="opacity:1" fill="#e89240" d="M 111.5,64.5 C 110.603,63.4019 109.77,63.4019 109,64.5C 107.2,62.1693 105.2,62.1693 103,64.5C 101.133,64.6861 99.1335,64.3528 97,63.5C 94.7903,65.1109 92.2903,65.7776 89.5,65.5C 94.9629,61.8457 100.963,59.679 107.5,59C 109.464,60.451 110.797,62.2843 111.5,64.5 Z"/></g>
<g><path style="opacity:1" fill="#e98e3c" d="M 179.5,60.5 C 187.096,62.628 193.762,66.2947 199.5,71.5C 194.21,70.7252 189.21,69.8919 184.5,69C 182.338,67.5067 180.338,65.84 178.5,64C 179.337,62.9887 179.67,61.8221 179.5,60.5 Z"/></g>
<g><path style="opacity:1" fill="#e78322" d="M 111.5,64.5 C 115.525,67.5579 118.858,71.2245 121.5,75.5C 121.427,77.0269 122.094,78.0269 123.5,78.5C 125.167,79.5 126.5,80.8333 127.5,82.5C 127.427,84.0269 128.094,85.0269 129.5,85.5C 129.624,87.5816 130.624,89.0816 132.5,90C 130.866,90.4935 129.199,90.6602 127.5,90.5C 129.176,96.1085 132.842,98.2751 138.5,97C 139.373,98.045 140.373,98.8783 141.5,99.5C 144.002,101.17 146.002,103.336 147.5,106C 143.654,107.536 139.654,108.369 135.5,108.5C 130.306,108.887 124.973,108.887 119.5,108.5C 119.473,110.199 118.806,111.533 117.5,112.5C 113.574,113.552 109.574,114.218 105.5,114.5C 101.988,113.945 98.9878,114.612 96.5,116.5C 84.2661,119.213 71.9328,121.546 59.5,123.5C 56.8806,123.768 54.3806,123.435 52,122.5C 49.544,124.321 46.7107,124.988 43.5,124.5C 43.3713,122.784 43.038,121.117 42.5,119.5C 45.7952,108.899 51.1285,99.5654 58.5,91.5C 60.2624,90.7377 61.2624,89.4044 61.5,87.5C 61.8333,86.5 62.5,85.8333 63.5,85.5C 67.1002,83.5698 70.1002,80.9031 72.5,77.5C 77.2812,72.2734 82.9478,68.2734 89.5,65.5C 92.2903,65.7776 94.7903,65.1109 97,63.5C 99.1335,64.3528 101.133,64.6861 103,64.5C 105.2,62.1693 107.2,62.1693 109,64.5C 109.77,63.4019 110.603,63.4019 111.5,64.5 Z"/></g>
<g><path style="opacity:1" fill="#e7ac70" d="M 121.5,75.5 C 122.906,75.9731 123.573,76.9731 123.5,78.5C 122.094,78.0269 121.427,77.0269 121.5,75.5 Z"/></g>
<g><path style="opacity:1" fill="#ea9b54" d="M 72.5,77.5 C 70.1002,80.9031 67.1002,83.5698 63.5,85.5C 65.8998,82.0969 68.8998,79.4302 72.5,77.5 Z"/></g>
<g><path style="opacity:1" fill="#e6ad79" d="M 127.5,82.5 C 128.906,82.9731 129.573,83.9731 129.5,85.5C 128.094,85.0269 127.427,84.0269 127.5,82.5 Z"/></g>
<g><path style="opacity:1" fill="#eaa970" d="M 61.5,87.5 C 61.2624,89.4044 60.2624,90.7377 58.5,91.5C 58.7376,89.5956 59.7376,88.2623 61.5,87.5 Z"/></g>
<g><path style="opacity:1" fill="#e78c36" d="M 129.5,85.5 C 133.868,89.8666 137.868,94.5333 141.5,99.5C 140.373,98.8783 139.373,98.045 138.5,97C 132.842,98.2751 129.176,96.1085 127.5,90.5C 129.199,90.6602 130.866,90.4935 132.5,90C 130.624,89.0816 129.624,87.5816 129.5,85.5 Z"/></g>
<g><path style="opacity:1" fill="#e98e39" d="M 222.5,93.5 C 222.5,93.8333 222.5,94.1667 222.5,94.5C 221.559,97.1251 220.393,97.1251 219,94.5C 217.921,96.3937 216.587,96.727 215,95.5C 213.007,97.7848 212.507,100.285 213.5,103C 213,104.5 212.5,106 212,107.5C 211.667,106.5 211.333,105.5 211,104.5C 210.8,106.32 209.966,107.653 208.5,108.5C 210.846,100.961 213.679,93.6272 217,86.5C 219.325,88.5008 221.158,90.8342 222.5,93.5 Z"/></g>
<g><path style="opacity:1" fill="#e7b079" d="M 222.5,93.5 C 223.906,93.9731 224.573,94.9731 224.5,96.5C 223.5,96.1667 222.833,95.5 222.5,94.5C 222.5,94.1667 222.5,93.8333 222.5,93.5 Z"/></g>
<g><path style="opacity:1" fill="#e87e1a" d="M 222.5,94.5 C 222.833,95.5 223.5,96.1667 224.5,96.5C 224.427,98.0269 225.094,99.0269 226.5,99.5C 226.427,101.027 227.094,102.027 228.5,102.5C 228.227,104.451 228.893,105.951 230.5,107C 228.223,107.973 226.057,108.14 224,107.5C 221.942,108.112 220.109,109.112 218.5,110.5C 217.707,110.069 216.873,109.735 216,109.5C 213.78,111.193 211.28,112.193 208.5,112.5C 208.5,111.5 208.5,110.5 208.5,109.5C 208.5,109.167 208.5,108.833 208.5,108.5C 209.966,107.653 210.8,106.32 211,104.5C 211.333,105.5 211.667,106.5 212,107.5C 212.5,106 213,104.5 213.5,103C 212.507,100.285 213.007,97.7848 215,95.5C 216.587,96.727 217.921,96.3937 219,94.5C 220.393,97.1251 221.559,97.1251 222.5,94.5 Z"/></g>
<g><path style="opacity:1" fill="#eba969" d="M 224.5,96.5 C 225.906,96.9731 226.573,97.9731 226.5,99.5C 225.094,99.0269 224.427,98.0269 224.5,96.5 Z"/></g>
<g><path style="opacity:1" fill="#e78020" d="M 203.5,102.5 C 201.45,109.598 199.117,116.598 196.5,123.5C 192.407,122.434 188.574,122.767 185,124.5C 182.023,122.749 179.023,122.416 176,123.5C 173.386,122.702 170.886,121.702 168.5,120.5C 166.833,118.5 165.167,116.5 163.5,114.5C 163.586,113.504 163.252,112.671 162.5,112C 165.002,110.568 167.502,110.402 170,111.5C 171.671,109.724 173.504,109.39 175.5,110.5C 178.294,108.016 181.627,106.849 185.5,107C 186.253,105.513 187.086,105.346 188,106.5C 189.553,104.306 191.719,103.14 194.5,103C 193.833,102.667 193.167,102.333 192.5,102C 193.931,101.535 195.097,100.701 196,99.5C 197.101,101.394 198.434,102.061 200,101.5C 202.484,98.7406 203.65,99.074 203.5,102.5 Z"/></g>
<g><path style="opacity:1" fill="#e9a86c" d="M 226.5,99.5 C 227.906,99.9731 228.573,100.973 228.5,102.5C 227.094,102.027 226.427,101.027 226.5,99.5 Z"/></g>
<g><path style="opacity:1" fill="#e87f20" d="M 337.5,100.5 C 343.245,100.603 348.578,101.936 353.5,104.5C 350.592,105.159 350.258,105.993 352.5,107C 349.993,107.093 347.826,107.926 346,109.5C 345.481,108.484 344.647,107.818 343.5,107.5C 341.833,108.167 340.167,108.833 338.5,109.5C 337.214,109.148 336.381,108.482 336,107.5C 334.779,108.272 333.779,109.272 333,110.5C 330.997,109.783 328.831,109.45 326.5,109.5C 322.65,110.982 318.65,111.816 314.5,112C 316.974,112.037 318.974,112.87 320.5,114.5C 317.833,114.5 315.167,114.5 312.5,114.5C 311.127,114.343 309.793,114.51 308.5,115C 309.388,116.717 308.721,117.884 306.5,118.5C 303.217,119.327 299.884,119.66 296.5,119.5C 296.053,122.386 296.053,125.22 296.5,128C 296.293,129.95 295.293,131.116 293.5,131.5C 293.5,121.167 293.5,110.833 293.5,100.5C 308.167,100.5 322.833,100.5 337.5,100.5 Z"/></g>
<g><path style="opacity:1" fill="#434444" d="M 467.5,100.5 C 474.5,100.5 481.5,100.5 488.5,100.5C 488.5,126.5 488.5,152.5 488.5,178.5C 482.5,178.5 476.5,178.5 470.5,178.5C 470.5,161.833 470.5,145.167 470.5,128.5C 463.299,129.987 458.299,127.32 455.5,120.5C 459.075,113.589 463.075,106.922 467.5,100.5 Z"/></g>
<g><path style="opacity:1" fill="#595859" d="M 12.5,79.5 C 11.5049,130.095 11.1716,180.762 11.5,231.5C 10.8334,206.336 10.5,181.002 10.5,155.5C 10.5002,129.824 11.1669,104.491 12.5,79.5 Z"/></g>
<g><path style="opacity:1" fill="#e89d56" d="M 135.5,108.5 C 129.7,110.196 123.7,111.529 117.5,112.5C 118.806,111.533 119.473,110.199 119.5,108.5C 124.973,108.887 130.306,108.887 135.5,108.5 Z"/></g>
<g><path style="opacity:1" fill="#464646" d="M 407.5,100.5 C 417.804,115.657 427.97,130.99 438,146.5C 441.361,140.422 445.195,134.755 449.5,129.5C 450.458,129.047 451.292,128.381 452,127.5C 453.324,128.88 454.657,129.214 456,128.5C 457.825,129.103 459.659,129.77 461.5,130.5C 461.291,131.086 460.957,131.586 460.5,132C 464.869,132.636 465.369,134.136 462,136.5C 461.506,138.134 461.34,139.801 461.5,141.5C 455.845,150.806 450.178,160.139 444.5,169.5C 440.167,170.833 435.833,170.833 431.5,169.5C 423.052,157.065 415.052,144.399 407.5,131.5C 407.44,130.957 407.107,130.624 406.5,130.5C 405.501,146.486 405.167,162.486 405.5,178.5C 399.5,178.5 393.5,178.5 387.5,178.5C 387.5,152.5 387.5,126.5 387.5,100.5C 394.167,100.5 400.833,100.5 407.5,100.5 Z"/></g>
<g><path style="opacity:1" fill="#484848" d="M 701.5,100.5 C 702.833,126.5 702.833,152.5 701.5,178.5C 695.167,178.5 688.833,178.5 682.5,178.5C 682.5,152.5 682.5,126.5 682.5,100.5C 688.833,100.5 695.167,100.5 701.5,100.5 Z"/></g>
<g><path style="opacity:1" fill="#e89f5e" d="M 105.5,114.5 C 102.727,115.657 99.7273,116.324 96.5,116.5C 98.9878,114.612 101.988,113.945 105.5,114.5 Z"/></g>
<g><path style="opacity:1" fill="#e79a52" d="M 312.5,115.5 C 312.5,115.167 312.5,114.833 312.5,114.5C 315.167,114.5 317.833,114.5 320.5,114.5C 325.179,114.334 329.845,114.501 334.5,115C 335.737,115.232 336.737,115.732 337.5,116.5C 329.529,115.677 321.529,115.344 313.5,115.5C 313.167,115.5 312.833,115.5 312.5,115.5 Z"/></g>
<g><path style="opacity:1" fill="#757675" d="M 572.5,100.5 C 572.833,100.5 573.167,100.5 573.5,100.5C 573.5,105.5 573.5,110.5 573.5,115.5C 557.833,115.5 542.167,115.5 526.5,115.5C 526.167,115.5 525.833,115.5 525.5,115.5C 540.991,114.504 556.658,114.17 572.5,114.5C 572.5,109.833 572.5,105.167 572.5,100.5 Z"/></g>
<g><path style="opacity:1" fill="#767676" d="M 641.5,102.5 C 637.993,101.994 634.826,102.66 632,104.5C 631.383,103.551 631.549,102.718 632.5,102C 617.504,101.5 602.504,101.333 587.5,101.5C 587.5,127.167 587.5,152.833 587.5,178.5C 602.833,178.5 618.167,178.5 633.5,178.5C 618.009,179.496 602.342,179.83 586.5,179.5C 585.546,153.235 585.38,126.902 586,100.5C 600.759,99.3433 615.592,99.1767 630.5,100C 634.43,100.242 638.097,101.075 641.5,102.5 Z"/></g>
<g><path style="opacity:1" fill="#e78626" d="M 228.5,102.5 C 233.896,110.004 237.563,118.338 239.5,127.5C 238.685,126.571 237.852,125.571 237,124.5C 236.333,125.833 235.667,125.833 235,124.5C 234.774,127.095 234.274,129.595 233.5,132C 234.654,132.914 234.487,133.747 233,134.5C 231.527,134.868 230.027,134.368 228.5,133C 229.623,131.956 230.956,131.29 232.5,131C 229.304,130.604 226.47,129.438 224,127.5C 223.667,128.167 223.333,128.833 223,129.5C 222,128.167 221,128.167 220,129.5C 219.667,128.833 219.333,128.167 219,127.5C 216.553,128.406 214.053,129.239 211.5,130C 210.643,130.689 209.977,131.522 209.5,132.5C 211.108,133.242 212.775,133.409 214.5,133C 212.26,134.513 210.76,136.013 210,137.5C 208.829,136.66 207.662,135.827 206.5,135C 208.301,134.683 208.634,134.016 207.5,133C 206.234,132.691 205.067,132.191 204,131.5C 202.984,132.634 202.317,132.301 202,130.5C 201.349,132.235 201.515,133.902 202.5,135.5C 201.817,138.461 200.984,138.795 200,136.5C 199.8,138.32 198.966,139.653 197.5,140.5C 200.599,129.865 204.265,119.531 208.5,109.5C 208.5,110.5 208.5,111.5 208.5,112.5C 211.28,112.193 213.78,111.193 216,109.5C 216.873,109.735 217.707,110.069 218.5,110.5C 220.109,109.112 221.942,108.112 224,107.5C 226.057,108.14 228.223,107.973 230.5,107C 228.893,105.951 228.227,104.451 228.5,102.5 Z"/></g>
<g><path style="opacity:1" fill="#e5ae7b" d="M 337.5,100.5 C 322.833,100.5 308.167,100.5 293.5,100.5C 293.5,110.833 293.5,121.167 293.5,131.5C 293.5,147.167 293.5,162.833 293.5,178.5C 308.833,178.5 324.167,178.5 339.5,178.5C 324.009,179.496 308.342,179.83 292.5,179.5C 292.5,152.833 292.5,126.167 292.5,99.5C 307.676,99.1706 322.676,99.5039 337.5,100.5 Z"/></g>
<g><path style="opacity:1" fill="#7b7a7b" d="M 407.5,100.5 C 400.833,100.5 394.167,100.5 387.5,100.5C 387.5,126.5 387.5,152.5 387.5,178.5C 387.167,178.5 386.833,178.5 386.5,178.5C 386.5,152.167 386.5,125.833 386.5,99.5C 393.687,99.1755 400.687,99.5088 407.5,100.5 Z"/></g>
<g><path style="opacity:1" fill="#e78220" d="M 312.5,114.5 C 312.5,114.833 312.5,115.167 312.5,115.5C 312.5,131.833 312.5,148.167 312.5,164.5C 319.354,164.824 326.021,164.491 332.5,163.5C 334.265,162.539 336.265,162.205 338.5,162.5C 340.144,162.714 341.644,162.38 343,161.5C 343.617,162.449 343.451,163.282 342.5,164C 345.187,164.537 347.687,164.037 350,162.5C 351.085,164.657 352.251,164.824 353.5,163C 350.879,162.094 351.046,161.594 354,161.5C 354.833,161.833 355.667,162.167 356.5,162.5C 352.373,169.047 353.54,170.047 360,165.5C 360.18,167.488 360.014,169.488 359.5,171.5C 353.603,175.8 346.936,178.134 339.5,178.5C 324.167,178.5 308.833,178.5 293.5,178.5C 293.5,162.833 293.5,147.167 293.5,131.5C 295.293,131.116 296.293,129.95 296.5,128C 296.053,125.22 296.053,122.386 296.5,119.5C 299.884,119.66 303.217,119.327 306.5,118.5C 308.721,117.884 309.388,116.717 308.5,115C 309.793,114.51 311.127,114.343 312.5,114.5 Z"/></g>
<g><path style="opacity:1" fill="#454545" d="M 641.5,102.5 C 656.546,106.046 665.713,115.379 669,130.5C 671.95,145.21 668.45,158.043 658.5,169C 655.594,171.619 652.261,173.453 648.5,174.5C 645.458,174.733 642.792,175.733 640.5,177.5C 638.283,178.369 635.95,178.702 633.5,178.5C 618.167,178.5 602.833,178.5 587.5,178.5C 587.5,152.833 587.5,127.167 587.5,101.5C 602.504,101.333 617.504,101.5 632.5,102C 631.549,102.718 631.383,103.551 632,104.5C 634.826,102.66 637.993,101.994 641.5,102.5 Z M 606.5,115.5 C 616.315,114.927 625.982,115.76 635.5,118C 643.456,121.773 648.123,127.94 649.5,136.5C 649.448,140.198 649.114,143.865 648.5,147.5C 645.764,155.235 640.43,160.235 632.5,162.5C 623.932,163.42 615.432,163.42 607,162.5C 606.5,146.837 606.333,131.17 606.5,115.5 Z"/></g>
<g><path style="opacity:1" fill="#e89647" d="M 42.5,119.5 C 43.038,121.117 43.3713,122.784 43.5,124.5C 46.7107,124.988 49.544,124.321 52,122.5C 54.3806,123.435 56.8806,123.768 59.5,123.5C 54.4089,125.129 49.0755,126.129 43.5,126.5C 42.209,126.737 41.209,126.404 40.5,125.5C 40.595,123.214 41.2616,121.214 42.5,119.5 Z"/></g>
<g><path style="opacity:1" fill="#8c8c8c" d="M 573.5,100.5 C 573.167,100.5 572.833,100.5 572.5,100.5C 550.5,100.5 528.5,100.5 506.5,100.5C 506.5,126.5 506.5,152.5 506.5,178.5C 506.5,178.833 506.5,179.167 506.5,179.5C 505.502,153.005 505.169,126.339 505.5,99.5C 528.339,99.1692 551.006,99.5025 573.5,100.5 Z"/></g>
<g><path style="opacity:1" fill="#e59e5c" d="M 91.5,124.5 C 93.6074,123.532 95.9407,123.198 98.5,123.5C 98.405,125.786 97.7384,127.786 96.5,129.5C 97.1667,125.5 95.5,123.833 91.5,124.5 Z"/></g>
<g><path style="opacity:1" fill="#e89c56" d="M 91.5,124.5 C 91.0825,125.222 90.4158,125.722 89.5,126C 86.854,126.497 84.1873,126.664 81.5,126.5C 84.5885,125.215 87.9219,124.549 91.5,124.5 Z"/></g>
<g><path style="opacity:1" fill="#e6b98d" d="M 40.5,125.5 C 41.209,126.404 42.209,126.737 43.5,126.5C 42.2918,127.782 40.9584,127.782 39.5,126.5C 39.6236,125.893 39.9569,125.56 40.5,125.5 Z"/></g>
<g><path style="opacity:1" fill="#e78c33" d="M 168.5,120.5 C 170.886,121.702 173.386,122.702 176,123.5C 179.023,122.416 182.023,122.749 185,124.5C 188.574,122.767 192.407,122.434 196.5,123.5C 194.777,129.169 192.944,134.836 191,140.5C 190.632,141.91 189.799,142.91 188.5,143.5C 181.811,135.814 175.144,128.147 168.5,120.5 Z"/></g>
<g><path style="opacity:1" fill="#696a69" d="M 606.5,115.5 C 606.333,131.17 606.5,146.837 607,162.5C 615.432,163.42 623.932,163.42 632.5,162.5C 631.737,163.268 630.737,163.768 629.5,164C 621.587,164.814 613.754,164.647 606,163.5C 605.172,147.328 605.339,131.328 606.5,115.5 Z"/></g>
<g><path style="opacity:1" fill="#eb8424" d="M 353.5,104.5 C 368.281,111.535 375.614,123.368 375.5,140C 375.517,144.318 374.851,148.485 373.5,152.5C 372.85,152.196 372.183,151.863 371.5,151.5C 370.534,153.396 370.201,155.396 370.5,157.5C 365.405,158.496 360.405,159.329 355.5,160C 356.97,156.884 358.803,154.051 361,151.5C 363.853,152.875 366.519,154.542 369,156.5C 369.167,156 369.333,155.5 369.5,155C 368.576,153.85 368.576,152.85 369.5,152C 365.509,151.358 361.509,150.858 357.5,150.5C 357.216,154.226 355.216,156.392 351.5,157C 352.258,158.364 351.758,159.531 350,160.5C 347.842,159.95 347.342,158.95 348.5,157.5C 351.587,153.323 353.587,148.656 354.5,143.5C 355.198,140.103 355.865,136.603 356.5,133C 355.309,132.302 354.309,131.469 353.5,130.5C 350.395,123.401 345.062,118.734 337.5,116.5C 336.737,115.732 335.737,115.232 334.5,115C 329.845,114.501 325.179,114.334 320.5,114.5C 318.974,112.87 316.974,112.037 314.5,112C 318.65,111.816 322.65,110.982 326.5,109.5C 328.831,109.45 330.997,109.783 333,110.5C 333.779,109.272 334.779,108.272 336,107.5C 336.381,108.482 337.214,109.148 338.5,109.5C 340.167,108.833 341.833,108.167 343.5,107.5C 344.647,107.818 345.481,108.484 346,109.5C 347.826,107.926 349.993,107.093 352.5,107C 350.258,105.993 350.592,105.159 353.5,104.5 Z"/></g>
<g><path style="opacity:1" fill="#565656" d="M 455.5,120.5 C 458.299,127.32 463.299,129.987 470.5,128.5C 470.5,145.167 470.5,161.833 470.5,178.5C 470.167,178.5 469.833,178.5 469.5,178.5C 469.667,162.497 469.5,146.497 469,130.5C 466.477,134.233 463.977,137.899 461.5,141.5C 461.34,139.801 461.506,138.134 462,136.5C 465.369,134.136 464.869,132.636 460.5,132C 460.957,131.586 461.291,131.086 461.5,130.5C 459.659,129.77 457.825,129.103 456,128.5C 454.657,129.214 453.324,128.88 452,127.5C 451.292,128.381 450.458,129.047 449.5,129.5C 450.759,125.975 452.759,122.975 455.5,120.5 Z"/></g>
<g><path style="opacity:1" fill="#e78323" d="M 91.5,124.5 C 95.5,123.833 97.1667,125.5 96.5,129.5C 96.5674,130.959 96.2341,132.292 95.5,133.5C 94.5,133.5 93.5,133.5 92.5,133.5C 92.5,136.167 92.5,138.833 92.5,141.5C 90.8984,147.971 88.8984,154.304 86.5,160.5C 85.8826,160.389 85.3826,160.056 85,159.5C 84.5065,161.134 84.3398,162.801 84.5,164.5C 80.8943,176.983 76.8943,189.317 72.5,201.5C 67.659,202.317 62.659,203.65 57.5,205.5C 55.4998,204.263 53.6664,204.597 52,206.5C 50.6439,205.62 49.1439,205.286 47.5,205.5C 45.7497,204.341 44.7497,202.674 44.5,200.5C 44.4914,198.692 44.9914,197.025 46,195.5C 52.4694,194.427 52.9694,192.261 47.5,189C 50.9431,188.779 51.2764,187.779 48.5,186C 48.8333,185.667 49.1667,185.333 49.5,185C 47.1253,182.593 46.1253,183.093 46.5,186.5C 44.1727,186.753 42.1727,186.086 40.5,184.5C 39.9348,182.456 38.9348,180.79 37.5,179.5C 33.6753,164.929 33.5087,150.263 37,135.5C 39.6212,134.009 42.4545,133.342 45.5,133.5C 48.1194,133.232 50.6194,133.565 53,134.5C 53.985,133.186 55.1516,132.186 56.5,131.5C 64.6374,129.473 72.9707,127.806 81.5,126.5C 84.1873,126.664 86.854,126.497 89.5,126C 90.4158,125.722 91.0825,125.222 91.5,124.5 Z"/></g>
<g><path style="opacity:1" fill="#908f90" d="M 525.5,115.5 C 525.833,115.5 526.167,115.5 526.5,115.5C 526.5,120.833 526.5,126.167 526.5,131.5C 540.344,131.171 554.01,131.504 567.5,132.5C 567.167,132.5 566.833,132.5 566.5,132.5C 552.833,132.5 539.167,132.5 525.5,132.5C 525.5,126.833 525.5,121.167 525.5,115.5 Z"/></g>
<g><path style="opacity:1" fill="#e8a25d" d="M 56.5,131.5 C 55.1516,132.186 53.985,133.186 53,134.5C 50.6194,133.565 48.1194,133.232 45.5,133.5C 48.9458,132.313 52.6125,131.646 56.5,131.5 Z"/></g>
<g><path style="opacity:1" fill="#e78322" d="M 239.5,127.5 C 239.41,130.152 240.076,132.485 241.5,134.5C 245.581,150.067 245.414,165.733 241,181.5C 239.989,182.337 238.822,182.67 237.5,182.5C 230.908,182.775 224.742,182.775 219,182.5C 216.751,184.572 214.084,185.905 211,186.5C 210.586,186.043 210.086,185.709 209.5,185.5C 208.452,186.548 207.452,187.548 206.5,188.5C 197.839,190.166 189.172,191.832 180.5,193.5C 179.522,190.732 179.855,188.066 181.5,185.5C 183.834,183.824 184.834,181.491 184.5,178.5C 185.435,174.031 186.768,169.697 188.5,165.5C 190.213,164.365 190.88,162.698 190.5,160.5C 192.44,153.678 194.774,147.011 197.5,140.5C 198.966,139.653 199.8,138.32 200,136.5C 200.984,138.795 201.817,138.461 202.5,135.5C 201.515,133.902 201.349,132.235 202,130.5C 202.317,132.301 202.984,132.634 204,131.5C 205.067,132.191 206.234,132.691 207.5,133C 208.634,134.016 208.301,134.683 206.5,135C 207.662,135.827 208.829,136.66 210,137.5C 210.76,136.013 212.26,134.513 214.5,133C 212.775,133.409 211.108,133.242 209.5,132.5C 209.977,131.522 210.643,130.689 211.5,130C 214.053,129.239 216.553,128.406 219,127.5C 219.333,128.167 219.667,128.833 220,129.5C 221,128.167 222,128.167 223,129.5C 223.333,128.833 223.667,128.167 224,127.5C 226.47,129.438 229.304,130.604 232.5,131C 230.956,131.29 229.623,131.956 228.5,133C 230.027,134.368 231.527,134.868 233,134.5C 234.487,133.747 234.654,132.914 233.5,132C 234.274,129.595 234.774,127.095 235,124.5C 235.667,125.833 236.333,125.833 237,124.5C 237.852,125.571 238.685,126.571 239.5,127.5 Z"/></g>
<g><path style="opacity:1" fill="#e79b56" d="M 95.5,133.5 C 94.871,136.397 93.871,139.064 92.5,141.5C 92.5,138.833 92.5,136.167 92.5,133.5C 93.5,133.5 94.5,133.5 95.5,133.5 Z"/></g>
<g><path style="opacity:1" fill="#e9a35f" d="M 239.5,127.5 C 240.924,129.515 241.59,131.848 241.5,134.5C 240.076,132.485 239.41,130.152 239.5,127.5 Z"/></g>
<g><path style="opacity:1" fill="#434343" d="M 267.5,81.5 C 267.5,126.833 267.5,172.167 267.5,217.5C 266.521,216.235 265.521,214.901 264.5,213.5C 263.522,213.977 262.689,214.643 262,215.5C 261.667,214.833 261.333,214.167 261,213.5C 259.951,214.517 258.784,214.684 257.5,214C 257.833,213.667 258.167,213.333 258.5,213C 255.876,210.641 255.209,210.975 256.5,214C 255.956,214.717 255.289,215.217 254.5,215.5C 254.5,173.5 254.5,131.5 254.5,89.5C 255.151,90.0906 255.818,90.7573 256.5,91.5C 258.332,90.7515 259.999,89.7515 261.5,88.5C 262.967,88.723 264.467,89.0563 266,89.5C 266.183,86.6353 266.683,83.9686 267.5,81.5 Z"/></g>
<g><path style="opacity:1" fill="#e79f61" d="M 353.5,130.5 C 354.309,131.469 355.309,132.302 356.5,133C 355.865,136.603 355.198,140.103 354.5,143.5C 354.628,139.119 354.295,134.785 353.5,130.5 Z"/></g>
<g><path style="opacity:1" fill="#6e6d6e" d="M 649.5,136.5 C 650.158,137.793 650.492,139.293 650.5,141C 650.664,143.544 649.997,145.71 648.5,147.5C 649.114,143.865 649.448,140.198 649.5,136.5 Z"/></g>
<g><path style="opacity:1" fill="#706f6f" d="M 252.5,88.5 C 253.492,88.3284 254.158,88.6618 254.5,89.5C 254.5,131.5 254.5,173.5 254.5,215.5C 255.036,218.698 254.369,221.365 252.5,223.5C 253.833,178.5 253.833,133.5 252.5,88.5 Z"/></g>
<g><path style="opacity:1" fill="#8e8d8d" d="M 467.5,100.5 C 474.648,99.5084 481.981,99.175 489.5,99.5C 489.5,126.167 489.5,152.833 489.5,179.5C 482.646,179.824 475.979,179.491 469.5,178.5C 469.833,178.5 470.167,178.5 470.5,178.5C 476.5,178.5 482.5,178.5 488.5,178.5C 488.5,152.5 488.5,126.5 488.5,100.5C 481.5,100.5 474.5,100.5 467.5,100.5 Z"/></g>
<g><path style="opacity:1" fill="#454545" d="M 29.5,86.5 C 28.6851,87.8366 27.5185,88.8366 26,89.5C 25.5,133.832 25.3333,178.165 25.5,222.5C 25.528,224.582 24.8613,226.416 23.5,228C 20.5881,228.378 17.5881,228.878 14.5,229.5C 14.6495,230.552 14.4828,231.552 14,232.5C 13.3292,231.748 12.4959,231.414 11.5,231.5C 11.1716,180.762 11.5049,130.095 12.5,79.5C 15.4155,78.1885 17.9155,78.8552 20,81.5C 22.0398,79.6469 24.3731,78.3136 27,77.5C 27.6877,76.6683 27.521,76.0016 26.5,75.5C 25.6043,76.5063 24.9377,76.5063 24.5,75.5C 26.4725,73.6787 28.8058,73.512 31.5,75C 28.4557,75.3589 28.1224,76.0255 30.5,77C 27.9365,77.763 27.9365,78.263 30.5,78.5C 31.9489,76.7506 33.2823,76.5839 34.5,78C 32.6499,80.0176 30.6499,81.8509 28.5,83.5C 29.1272,84.4168 29.4606,85.4168 29.5,86.5 Z"/></g>
<g><path style="opacity:1" fill="#474747" d="M 804.5,177.5 C 797.687,178.491 790.687,178.825 783.5,178.5C 780.932,174.144 778.932,169.478 777.5,164.5C 764.15,164.167 750.817,164.501 737.5,165.5C 735.76,169.979 733.76,174.313 731.5,178.5C 724.416,179.126 717.75,178.459 711.5,176.5C 722.637,150.588 734.637,125.088 747.5,100C 754.167,99.3333 760.833,99.3333 767.5,100C 780.502,125.505 792.836,151.338 804.5,177.5 Z M 756.5,121.5 C 757.167,121.5 757.833,121.5 758.5,121.5C 761.649,130.455 765.315,139.121 769.5,147.5C 761.5,148.833 753.5,148.833 745.5,147.5C 749.555,139.002 753.222,130.335 756.5,121.5 Z"/></g>
<g><path style="opacity:1" fill="#999999" d="M 758.5,121.5 C 757.833,121.5 757.167,121.5 756.5,121.5C 757.167,118.833 757.833,118.833 758.5,121.5 Z"/></g>
<g><path style="opacity:1" fill="#a2a0a1" d="M 745.5,147.5 C 753.5,148.833 761.5,148.833 769.5,147.5C 770.043,147.56 770.376,147.893 770.5,148.5C 761.833,149.833 753.167,149.833 744.5,148.5C 744.624,147.893 744.957,147.56 745.5,147.5 Z"/></g>
<g><path style="opacity:1" fill="#8f8f8f" d="M 407.5,131.5 C 406.504,147.325 406.17,163.325 406.5,179.5C 399.646,179.824 392.979,179.491 386.5,178.5C 386.833,178.5 387.167,178.5 387.5,178.5C 393.5,178.5 399.5,178.5 405.5,178.5C 405.167,162.486 405.501,146.486 406.5,130.5C 407.107,130.624 407.44,130.957 407.5,131.5 Z"/></g>
<g><path style="opacity:1" fill="#434343" d="M 572.5,100.5 C 572.5,105.167 572.5,109.833 572.5,114.5C 556.658,114.17 540.991,114.504 525.5,115.5C 525.5,121.167 525.5,126.833 525.5,132.5C 539.167,132.5 552.833,132.5 566.5,132.5C 566.5,136.833 566.5,141.167 566.5,145.5C 552.833,145.5 539.167,145.5 525.5,145.5C 525.5,151.833 525.5,158.167 525.5,164.5C 541.5,164.5 557.5,164.5 573.5,164.5C 573.5,169.167 573.5,173.833 573.5,178.5C 551.167,178.5 528.833,178.5 506.5,178.5C 506.5,152.5 506.5,126.5 506.5,100.5C 528.5,100.5 550.5,100.5 572.5,100.5 Z"/></g>
<g><path style="opacity:1" fill="#ec9a52" d="M 373.5,152.5 C 373.065,155.157 372.065,157.491 370.5,159.5C 370.5,158.833 370.5,158.167 370.5,157.5C 370.201,155.396 370.534,153.396 371.5,151.5C 372.183,151.863 372.85,152.196 373.5,152.5 Z"/></g>
<g><path style="opacity:1" fill="#e88627" d="M 370.5,157.5 C 370.5,158.167 370.5,158.833 370.5,159.5C 368.223,164.777 364.556,168.777 359.5,171.5C 360.014,169.488 360.18,167.488 360,165.5C 353.54,170.047 352.373,169.047 356.5,162.5C 355.667,162.167 354.833,161.833 354,161.5C 351.046,161.594 350.879,162.094 353.5,163C 352.251,164.824 351.085,164.657 350,162.5C 347.687,164.037 345.187,164.537 342.5,164C 343.451,163.282 343.617,162.449 343,161.5C 341.644,162.38 340.144,162.714 338.5,162.5C 341.795,160.853 345.128,159.186 348.5,157.5C 347.342,158.95 347.842,159.95 350,160.5C 351.758,159.531 352.258,158.364 351.5,157C 355.216,156.392 357.216,154.226 357.5,150.5C 361.509,150.858 365.509,151.358 369.5,152C 368.576,152.85 368.576,153.85 369.5,155C 369.333,155.5 369.167,156 369,156.5C 366.519,154.542 363.853,152.875 361,151.5C 358.803,154.051 356.97,156.884 355.5,160C 360.405,159.329 365.405,158.496 370.5,157.5 Z"/></g>
<g><path style="opacity:1" fill="#e79d5c" d="M 86.5,160.5 C 86.3404,162.153 85.6737,163.486 84.5,164.5C 84.3398,162.801 84.5065,161.134 85,159.5C 85.3826,160.056 85.8826,160.389 86.5,160.5 Z"/></g>
<g><path style="opacity:1" fill="#8f8f8f" d="M 701.5,100.5 C 695.167,100.5 688.833,100.5 682.5,100.5C 682.5,126.5 682.5,152.5 682.5,178.5C 688.833,178.5 695.167,178.5 701.5,178.5C 695.021,179.491 688.354,179.824 681.5,179.5C 681.5,152.833 681.5,126.167 681.5,99.5C 688.354,99.176 695.021,99.5093 701.5,100.5 Z"/></g>
<g><path style="opacity:1" fill="#eaaf72" d="M 190.5,160.5 C 190.88,162.698 190.213,164.365 188.5,165.5C 188.796,163.597 189.463,161.93 190.5,160.5 Z"/></g>
<g><path style="opacity:1" fill="#ebb586" d="M 312.5,115.5 C 312.833,115.5 313.167,115.5 313.5,115.5C 313.5,131.5 313.5,147.5 313.5,163.5C 319.833,163.5 326.167,163.5 332.5,163.5C 326.021,164.491 319.354,164.824 312.5,164.5C 312.5,148.167 312.5,131.833 312.5,115.5 Z"/></g>
<g><path style="opacity:1" fill="#787879" d="M 566.5,132.5 C 566.833,132.5 567.167,132.5 567.5,132.5C 567.5,137.167 567.5,141.833 567.5,146.5C 553.833,146.5 540.167,146.5 526.5,146.5C 526.5,152.167 526.5,157.833 526.5,163.5C 542.5,163.5 558.5,163.5 574.5,163.5C 574.841,168.803 574.841,173.97 574.5,179C 551.836,179.5 529.169,179.667 506.5,179.5C 506.5,179.167 506.5,178.833 506.5,178.5C 528.833,178.5 551.167,178.5 573.5,178.5C 573.5,173.833 573.5,169.167 573.5,164.5C 557.5,164.5 541.5,164.5 525.5,164.5C 525.5,158.167 525.5,151.833 525.5,145.5C 539.167,145.5 552.833,145.5 566.5,145.5C 566.5,141.167 566.5,136.833 566.5,132.5 Z"/></g>
<g><path style="opacity:1" fill="#525151" d="M 267.5,79.5 C 268.831,130.335 268.831,181.335 267.5,232.5C 264.312,233.925 261.312,235.592 258.5,237.5C 258.279,236.265 257.612,235.265 256.5,234.5C 257.729,233.719 259.062,233.219 260.5,233C 259.66,231.334 260.16,231.167 262,232.5C 263.441,231.74 264.941,231.074 266.5,230.5C 267.492,226.217 267.826,221.884 267.5,217.5C 267.5,172.167 267.5,126.833 267.5,81.5C 267.5,80.8333 267.5,80.1667 267.5,79.5 Z"/></g>
<g><path style="opacity:1" fill="#868488" d="M 648.5,174.5 C 646.208,176.267 643.542,177.267 640.5,177.5C 642.792,175.733 645.458,174.733 648.5,174.5 Z"/></g>
<g><path style="opacity:1" fill="#e89649" d="M 95.5,179.5 C 94.5178,178.859 93.5178,178.193 92.5,177.5C 91.4826,180.028 90.3159,180.028 89,177.5C 88.7996,179.32 87.9663,180.653 86.5,181.5C 87.9147,170.596 90.9147,169.929 95.5,179.5 Z"/></g>
<g><path style="opacity:1" fill="#7f7f80" d="M 711.5,176.5 C 717.75,178.459 724.416,179.126 731.5,178.5C 724.687,179.491 717.687,179.825 710.5,179.5C 710.263,178.209 710.596,177.209 711.5,176.5 Z"/></g>
<g><path style="opacity:1" fill="#7f7f7f" d="M 804.5,177.5 C 805.043,177.56 805.376,177.893 805.5,178.5C 798.01,179.819 790.677,179.819 783.5,178.5C 790.687,178.825 797.687,178.491 804.5,177.5 Z"/></g>
<g><path style="opacity:1" fill="#e9a366" d="M 184.5,178.5 C 184.834,181.491 183.834,183.824 181.5,185.5C 181.935,182.843 182.935,180.509 184.5,178.5 Z"/></g>
<g><path style="opacity:1" fill="#e99c53" d="M 237.5,182.5 C 227.391,185.021 217.057,187.021 206.5,188.5C 207.452,187.548 208.452,186.548 209.5,185.5C 210.086,185.709 210.586,186.043 211,186.5C 214.084,185.905 216.751,184.572 219,182.5C 224.742,182.775 230.908,182.775 237.5,182.5 Z"/></g>
<g><path style="opacity:1" fill="#e78a35" d="M 37.5,179.5 C 38.9348,180.79 39.9348,182.456 40.5,184.5C 42.1727,186.086 44.1727,186.753 46.5,186.5C 46.1253,183.093 47.1253,182.593 49.5,185C 49.1667,185.333 48.8333,185.667 48.5,186C 51.2764,187.779 50.9431,188.779 47.5,189C 52.9694,192.261 52.4694,194.427 46,195.5C 44.9914,197.025 44.4914,198.692 44.5,200.5C 41.1958,193.921 38.8625,186.921 37.5,179.5 Z"/></g>
<g><path style="opacity:1" fill="#e7c19c" d="M 234.5,190.5 C 235.708,189.218 237.042,189.218 238.5,190.5C 238.376,191.107 238.043,191.44 237.5,191.5C 236.791,190.596 235.791,190.263 234.5,190.5 Z"/></g>
<g><path style="opacity:1" fill="#e78423" d="M 95.5,179.5 C 101.555,185.222 106.889,191.556 111.5,198.5C 111.427,200.027 112.094,201.027 113.5,201.5C 114.5,201.833 115.167,202.5 115.5,203.5C 115.738,205.404 116.738,206.738 118.5,207.5C 123.302,212.427 127.635,217.76 131.5,223.5C 131.427,225.027 132.094,226.027 133.5,226.5C 136.2,228.234 138.2,230.568 139.5,233.5C 139.738,235.404 140.738,236.738 142.5,237.5C 148.492,244.167 154.159,251.167 159.5,258.5C 124.955,265.153 94.6213,256.653 68.5,233C 70.9308,227.642 72.9308,222.142 74.5,216.5C 76.2132,215.365 76.8799,213.698 76.5,211.5C 76.9707,209.421 77.6373,207.421 78.5,205.5C 81.9152,203.062 83.2485,199.896 82.5,196C 83.8713,193.681 84.5379,191.181 84.5,188.5C 84.767,186.035 85.4336,183.701 86.5,181.5C 87.9663,180.653 88.7996,179.32 89,177.5C 90.3159,180.028 91.4826,180.028 92.5,177.5C 93.5178,178.193 94.5178,178.859 95.5,179.5 Z"/></g>
<g><path style="opacity:1" fill="#e68f3a" d="M 234.5,190.5 C 235.791,190.263 236.791,190.596 237.5,191.5C 237.267,194.542 236.267,197.208 234.5,199.5C 234.299,195.65 232.466,194.65 229,196.5C 225.25,195.195 221.417,194.195 217.5,193.5C 222.933,191.883 228.6,190.883 234.5,190.5 Z"/></g>
<g><path style="opacity:1" fill="#eb9a4b" d="M 217.5,193.5 C 217.082,194.222 216.416,194.722 215.5,195C 212.518,195.498 209.518,195.665 206.5,195.5C 209.946,194.313 213.613,193.646 217.5,193.5 Z"/></g>
<g><path style="opacity:1" fill="#697075" d="M 316.5,196.5 C 320.902,196.228 325.235,196.561 329.5,197.5C 330.823,199.204 330.49,200.537 328.5,201.5C 321.433,197.605 316.767,199.439 314.5,207C 316.492,214.829 321.159,216.995 328.5,213.5C 330.767,213.559 331.433,214.392 330.5,216C 323.363,219.837 316.863,219.004 311,213.5C 307.785,206.01 309.619,200.343 316.5,196.5 Z"/></g>
<g><path style="opacity:1" fill="#697075" d="M 342.5,196.5 C 346.846,196.334 351.179,196.501 355.5,197C 359.104,198.334 360.271,200.834 359,204.5C 358.07,206.552 356.57,208.052 354.5,209C 357.192,211.557 359.525,214.391 361.5,217.5C 359.5,218.833 357.5,218.833 355.5,217.5C 353.157,214.793 350.823,212.126 348.5,209.5C 347.516,212.428 347.183,215.428 347.5,218.5C 345.833,218.5 344.167,218.5 342.5,218.5C 342.5,211.167 342.5,203.833 342.5,196.5 Z M 347.5,199.5 C 350.596,198.907 352.929,199.907 354.5,202.5C 353.233,205.635 350.9,206.968 347.5,206.5C 347.5,204.167 347.5,201.833 347.5,199.5 Z"/></g>
<g><path style="opacity:1" fill="#697075" d="M 369.5,196.5 C 375.167,196.5 380.833,196.5 386.5,196.5C 386.5,197.5 386.5,198.5 386.5,199.5C 382.5,199.5 378.5,199.5 374.5,199.5C 374.5,201.833 374.5,204.167 374.5,206.5C 377.833,206.5 381.167,206.5 384.5,206.5C 384.5,207.5 384.5,208.5 384.5,209.5C 381.167,209.5 377.833,209.5 374.5,209.5C 374.5,211.5 374.5,213.5 374.5,215.5C 378.5,215.5 382.5,215.5 386.5,215.5C 386.5,216.5 386.5,217.5 386.5,218.5C 380.833,218.5 375.167,218.5 369.5,218.5C 369.5,211.167 369.5,203.833 369.5,196.5 Z"/></g>
<g><path style="opacity:1" fill="#697075" d="M 403.5,196.5 C 405.5,196.5 407.5,196.5 409.5,196.5C 411.907,203.71 414.907,210.71 418.5,217.5C 416.926,218.631 415.259,218.798 413.5,218C 411.213,212.543 407.213,211.043 401.5,213.5C 400.721,217.345 398.388,219.011 394.5,218.5C 396.943,210.945 399.943,203.612 403.5,196.5 Z M 405.5,202.5 C 406.933,204.519 408.267,206.686 409.5,209C 407.421,209.808 405.421,209.641 403.5,208.5C 404.372,206.55 405.039,204.55 405.5,202.5 Z"/></g>
<g><path style="opacity:1" fill="#697075" d="M 422.5,196.5 C 429.167,196.5 435.833,196.5 442.5,196.5C 442.5,197.5 442.5,198.5 442.5,199.5C 440.167,199.5 437.833,199.5 435.5,199.5C 435.5,205.833 435.5,212.167 435.5,218.5C 433.833,218.5 432.167,218.5 430.5,218.5C 430.5,212.167 430.5,205.833 430.5,199.5C 427.833,199.5 425.167,199.5 422.5,199.5C 422.5,198.5 422.5,197.5 422.5,196.5 Z"/></g>
<g><path style="opacity:1" fill="#697075" d="M 452.5,196.5 C 454.167,196.5 455.833,196.5 457.5,196.5C 457.5,203.833 457.5,211.167 457.5,218.5C 455.833,218.5 454.167,218.5 452.5,218.5C 452.5,211.167 452.5,203.833 452.5,196.5 Z"/></g>
<g><path style="opacity:1" fill="#697075" d="M 467.5,196.5 C 469.467,196.261 471.301,196.594 473,197.5C 475,202.167 477,206.833 479,211.5C 481.263,206.876 483.43,202.209 485.5,197.5C 487.045,196.548 488.712,196.215 490.5,196.5C 488.239,203.695 485.406,210.695 482,217.5C 480.186,218.76 478.353,218.76 476.5,217.5C 473.212,210.595 470.212,203.595 467.5,196.5 Z"/></g>
<g><path style="opacity:1" fill="#697075" d="M 499.5,196.5 C 505.167,196.5 510.833,196.5 516.5,196.5C 516.5,197.5 516.5,198.5 516.5,199.5C 512.5,199.5 508.5,199.5 504.5,199.5C 504.5,201.833 504.5,204.167 504.5,206.5C 507.833,206.5 511.167,206.5 514.5,206.5C 514.5,207.5 514.5,208.5 514.5,209.5C 511.167,209.5 507.833,209.5 504.5,209.5C 504.5,211.5 504.5,213.5 504.5,215.5C 508.5,215.5 512.5,215.5 516.5,215.5C 516.5,216.5 516.5,217.5 516.5,218.5C 510.833,218.5 505.167,218.5 499.5,218.5C 499.5,211.167 499.5,203.833 499.5,196.5 Z"/></g>
<g><path style="opacity:1" fill="#697075" d="M 542.5,196.5 C 545.85,196.335 549.183,196.502 552.5,197C 553.973,197.71 554.64,198.876 554.5,200.5C 552.116,200.557 549.782,200.223 547.5,199.5C 545.792,199.703 544.459,200.536 543.5,202C 546.768,204.206 550.268,206.039 554,207.5C 555.85,210.975 555.35,214.142 552.5,217C 547.89,219.101 543.39,218.934 539,216.5C 538.517,215.552 538.351,214.552 538.5,213.5C 541.39,213.278 544.057,213.945 546.5,215.5C 550.554,214.594 551.22,212.76 548.5,210C 545.67,209.131 543.003,207.964 540.5,206.5C 538.741,202.454 539.408,199.121 542.5,196.5 Z"/></g>
<g><path style="opacity:1" fill="#697075" d="M 571.5,196.5 C 575.182,196.335 578.848,196.501 582.5,197C 589.053,199.73 591.22,204.563 589,211.5C 584.36,218.155 578.194,219.989 570.5,217C 564.069,212.353 562.902,206.52 567,199.5C 568.652,198.601 570.152,197.601 571.5,196.5 Z M 573.5,199.5 C 579.991,198.328 583.658,200.995 584.5,207.5C 584.246,212.255 581.746,214.922 577,215.5C 568.616,211.744 567.449,206.411 573.5,199.5 Z"/></g>
<g><path style="opacity:1" fill="#697075" d="M 598.5,196.5 C 600.167,196.5 601.833,196.5 603.5,196.5C 603.5,202.5 603.5,208.5 603.5,214.5C 607.167,214.5 610.833,214.5 614.5,214.5C 614.5,215.833 614.5,217.167 614.5,218.5C 609.167,218.5 603.833,218.5 598.5,218.5C 598.5,211.167 598.5,203.833 598.5,196.5 Z"/></g>
<g><path style="opacity:1" fill="#697075" d="M 623.5,196.5 C 625.167,196.5 626.833,196.5 628.5,196.5C 628.334,201.511 628.501,206.511 629,211.5C 632.333,216.833 635.667,216.833 639,211.5C 639.499,206.511 639.666,201.511 639.5,196.5C 641.167,196.5 642.833,196.5 644.5,196.5C 644.666,201.844 644.499,207.177 644,212.5C 639.872,218.485 634.372,219.985 627.5,217C 625.951,215.786 624.785,214.286 624,212.5C 623.501,207.177 623.334,201.844 623.5,196.5 Z"/></g>
<g><path style="opacity:1" fill="#697075" d="M 653.5,196.5 C 660.167,196.5 666.833,196.5 673.5,196.5C 673.5,197.5 673.5,198.5 673.5,199.5C 671.167,199.5 668.833,199.5 666.5,199.5C 666.5,205.833 666.5,212.167 666.5,218.5C 664.833,218.5 663.167,218.5 661.5,218.5C 661.5,212.167 661.5,205.833 661.5,199.5C 658.833,199.5 656.167,199.5 653.5,199.5C 653.5,198.5 653.5,197.5 653.5,196.5 Z"/></g>
<g><path style="opacity:1" fill="#697075" d="M 683.5,196.5 C 685.167,196.5 686.833,196.5 688.5,196.5C 688.5,203.833 688.5,211.167 688.5,218.5C 686.833,218.5 685.167,218.5 683.5,218.5C 683.5,211.167 683.5,203.833 683.5,196.5 Z"/></g>
<g><path style="opacity:1" fill="#697075" d="M 705.5,196.5 C 709.182,196.335 712.848,196.501 716.5,197C 723.053,199.73 725.22,204.563 723,211.5C 718.36,218.155 712.194,219.989 704.5,217C 698.069,212.353 696.902,206.52 701,199.5C 702.652,198.601 704.152,197.601 705.5,196.5 Z M 707.5,199.5 C 713.991,198.328 717.658,200.995 718.5,207.5C 718.246,212.255 715.746,214.922 711,215.5C 702.616,211.744 701.449,206.411 707.5,199.5 Z"/></g>
<g><path style="opacity:1" fill="#697075" d="M 733.5,196.5 C 735.199,196.34 736.866,196.506 738.5,197C 742.45,201.072 746.283,205.238 750,209.5C 750.499,205.179 750.666,200.846 750.5,196.5C 751.833,196.5 753.167,196.5 754.5,196.5C 754.5,203.833 754.5,211.167 754.5,218.5C 753.127,218.657 751.793,218.49 750.5,218C 746.667,213.5 742.833,209 739,204.5C 738.501,209.155 738.334,213.821 738.5,218.5C 736.833,218.5 735.167,218.5 733.5,218.5C 733.5,211.167 733.5,203.833 733.5,196.5 Z"/></g>
<g><path style="opacity:1" fill="#697075" d="M 769.5,196.5 C 772.85,196.335 776.183,196.502 779.5,197C 780.973,197.71 781.64,198.876 781.5,200.5C 779.116,200.557 776.782,200.223 774.5,199.5C 772.792,199.703 771.459,200.536 770.5,202C 773.768,204.206 777.268,206.039 781,207.5C 782.85,210.975 782.35,214.142 779.5,217C 774.89,219.101 770.39,218.934 766,216.5C 765.517,215.552 765.351,214.552 765.5,213.5C 768.39,213.278 771.057,213.945 773.5,215.5C 777.554,214.594 778.22,212.76 775.5,210C 772.67,209.131 770.003,207.964 767.5,206.5C 765.741,202.454 766.408,199.121 769.5,196.5 Z"/></g>
<g><path style="opacity:1" fill="#e89447" d="M 84.5,188.5 C 84.5379,191.181 83.8713,193.681 82.5,196C 83.2485,199.896 81.9152,203.062 78.5,205.5C 79.7482,199.472 81.7482,193.806 84.5,188.5 Z"/></g>
<g><path style="opacity:1" fill="#e78321" d="M 217.5,193.5 C 221.417,194.195 225.25,195.195 229,196.5C 232.466,194.65 234.299,195.65 234.5,199.5C 233.025,203.783 231.025,207.783 228.5,211.5C 227.069,211.119 226.236,210.119 226,208.5C 224.174,210.074 222.007,210.907 219.5,211C 221.301,211.317 221.634,211.984 220.5,213C 221.167,213.333 221.833,213.667 222.5,214C 221.359,214.741 221.359,215.575 222.5,216.5C 220.183,218.316 218.016,220.316 216,222.5C 215.383,223.449 215.549,224.282 216.5,225C 212.941,225.679 211.941,227.512 213.5,230.5C 212.564,231.974 211.23,232.974 209.5,233.5C 208.305,233.322 207.138,232.989 206,232.5C 202.466,234.016 198.966,235.683 195.5,237.5C 194.914,237.291 194.414,236.957 194,236.5C 193.5,237.667 192.667,238.5 191.5,239C 192.5,239.333 193.5,239.667 194.5,240C 194.077,241.509 192.91,243.009 191,244.5C 188.043,243.574 185.376,243.574 183,244.5C 180.893,246.333 178.393,247.499 175.5,248C 176.336,249.243 176.003,250.41 174.5,251.5C 172.657,251.245 170.657,251.078 168.5,251C 165.691,249.259 162.691,248.092 159.5,247.5C 151.792,238.459 144.459,229.126 137.5,219.5C 137.5,218.167 137.5,216.833 137.5,215.5C 140.541,215.594 142.207,214.094 142.5,211C 141.5,210.667 140.5,210.333 139.5,210C 141.346,208.97 143.013,207.804 144.5,206.5C 144.833,206.5 145.167,206.5 145.5,206.5C 148.187,206.664 150.854,206.497 153.5,206C 154.416,205.722 155.082,205.222 155.5,204.5C 172.357,200.863 189.357,197.863 206.5,195.5C 209.518,195.665 212.518,195.498 215.5,195C 216.416,194.722 217.082,194.222 217.5,193.5 Z"/></g>
<g><path style="opacity:1" fill="#eaad71" d="M 111.5,198.5 C 112.906,198.973 113.573,199.973 113.5,201.5C 112.094,201.027 111.427,200.027 111.5,198.5 Z"/></g>
<g><path style="opacity:1" fill="#e7872e" d="M 72.5,201.5 C 70.113,210.383 67.113,219.049 63.5,227.5C 56.2147,221.554 50.8813,214.22 47.5,205.5C 49.1439,205.286 50.6439,205.62 52,206.5C 53.6664,204.597 55.4998,204.263 57.5,205.5C 62.659,203.65 67.659,202.317 72.5,201.5 Z"/></g>
<g><path style="opacity:1" fill="#ebab73" d="M 115.5,203.5 C 117.262,204.262 118.262,205.596 118.5,207.5C 116.738,206.738 115.738,205.404 115.5,203.5 Z"/></g>
<g><path style="opacity:1" fill="#e8a15d" d="M 155.5,204.5 C 155.082,205.222 154.416,205.722 153.5,206C 150.854,206.497 148.187,206.664 145.5,206.5C 148.627,205.419 151.96,204.753 155.5,204.5 Z"/></g>
<g><path style="opacity:1" fill="#e88b35" d="M 144.5,206.5 C 143.013,207.804 141.346,208.97 139.5,210C 140.5,210.333 141.5,210.667 142.5,211C 142.207,214.094 140.541,215.594 137.5,215.5C 137.5,216.833 137.5,218.167 137.5,219.5C 134.785,217.098 132.285,214.432 130,211.5C 129.517,210.552 129.351,209.552 129.5,208.5C 134.516,207.942 139.516,207.275 144.5,206.5 Z"/></g>
<g><path style="opacity:1" fill="#e9903e" d="M 228.5,211.5 C 224.612,218.72 219.612,225.053 213.5,230.5C 211.941,227.512 212.941,225.679 216.5,225C 215.549,224.282 215.383,223.449 216,222.5C 218.016,220.316 220.183,218.316 222.5,216.5C 221.359,215.575 221.359,214.741 222.5,214C 221.833,213.667 221.167,213.333 220.5,213C 221.634,211.984 221.301,211.317 219.5,211C 222.007,210.907 224.174,210.074 226,208.5C 226.236,210.119 227.069,211.119 228.5,211.5 Z"/></g>
<g><path style="opacity:1" fill="#e6a469" d="M 76.5,211.5 C 76.8799,213.698 76.2132,215.365 74.5,216.5C 74.7959,214.597 75.4625,212.93 76.5,211.5 Z"/></g>
<g><path style="opacity:1" fill="#494a4a" d="M 267.5,217.5 C 267.826,221.884 267.492,226.217 266.5,230.5C 264.941,231.074 263.441,231.74 262,232.5C 260.16,231.167 259.66,231.334 260.5,233C 259.062,233.219 257.729,233.719 256.5,234.5C 257.612,235.265 258.279,236.265 258.5,237.5C 219.024,260.408 179.357,283.074 139.5,305.5C 96.4435,281.312 53.7768,256.645 11.5,231.5C 12.4959,231.414 13.3292,231.748 14,232.5C 14.4828,231.552 14.6495,230.552 14.5,229.5C 17.5881,228.878 20.5881,228.378 23.5,228C 24.8613,226.416 25.528,224.582 25.5,222.5C 45.836,233.665 65.836,245.332 85.5,257.5C 85.631,258.239 85.4643,258.906 85,259.5C 83.3335,258.66 83.1669,259.16 84.5,261C 86.1124,261.72 87.6124,261.554 89,260.5C 92.3244,262.579 95.8244,264.246 99.5,265.5C 112.274,272.39 124.941,279.556 137.5,287C 138.833,287.667 140.167,287.667 141.5,287C 178.229,265.304 215.229,244.137 252.5,223.5C 254.369,221.365 255.036,218.698 254.5,215.5C 255.289,215.217 255.956,214.717 256.5,214C 255.209,210.975 255.876,210.641 258.5,213C 258.167,213.333 257.833,213.667 257.5,214C 258.784,214.684 259.951,214.517 261,213.5C 261.333,214.167 261.667,214.833 262,215.5C 262.689,214.643 263.522,213.977 264.5,213.5C 265.521,214.901 266.521,216.235 267.5,217.5 Z"/></g>
<g><path style="opacity:1" fill="#646564" d="M 85.5,257.5 C 90.5003,259.664 95.167,262.331 99.5,265.5C 95.8244,264.246 92.3244,262.579 89,260.5C 87.6124,261.554 86.1124,261.72 84.5,261C 83.1669,259.16 83.3335,258.66 85,259.5C 85.4643,258.906 85.631,258.239 85.5,257.5 Z"/></g>
<g><path style="opacity:1" fill="#e88932" d="M 209.5,233.5 C 197.937,244.793 184.27,252.793 168.5,257.5C 164.766,254.769 161.766,251.436 159.5,247.5C 162.691,248.092 165.691,249.259 168.5,251C 170.657,251.078 172.657,251.245 174.5,251.5C 176.003,250.41 176.336,249.243 175.5,248C 178.393,247.499 180.893,246.333 183,244.5C 185.376,243.574 188.043,243.574 191,244.5C 192.91,243.009 194.077,241.509 194.5,240C 193.5,239.667 192.5,239.333 191.5,239C 192.667,238.5 193.5,237.667 194,236.5C 194.414,236.957 194.914,237.291 195.5,237.5C 198.966,235.683 202.466,234.016 206,232.5C 207.138,232.989 208.305,233.322 209.5,233.5 Z"/></g>
<g><path style="opacity:1" fill="#e6a86f" d="M 139.5,233.5 C 141.262,234.262 142.262,235.596 142.5,237.5C 140.738,236.738 139.738,235.404 139.5,233.5 Z"/></g>
<g><path style="opacity:1" fill="#eaad70" d="M 131.5,223.5 C 132.906,223.973 133.573,224.973 133.5,226.5C 132.094,226.027 131.427,225.027 131.5,223.5 Z"/></g>
</svg>
